<svg xmlns="http://www.w3.org/2000/svg" width="1251.713" height="802.431" viewBox="0 0 1251.713 802.431">
  <g id="Grupo_118282" data-name="Grupo 118282" transform="translate(-180 -2966)">
    <rect id="Rectángulo_36910" data-name="Rectángulo 36910" width="1202" height="783" rx="20" transform="translate(199 2966)" fill="#ffca00" opacity="0.3"/>
    <g id="Grupo_118259" data-name="Grupo 118259" transform="translate(235.01 3436)">
      <circle id="Elipse_4053" data-name="Elipse 4053" cx="3.798" cy="3.798" r="3.798" transform="translate(193.457)" fill="#ffca00"/>
      <circle id="Elipse_4064" data-name="Elipse 4064" cx="3.798" cy="3.798" r="3.798" transform="translate(154.968)" fill="#ffca00"/>
      <circle id="Elipse_4070" data-name="Elipse 4070" cx="3.798" cy="3.798" r="3.798" transform="translate(116.479)" fill="#ffca00"/>
      <circle id="Elipse_4076" data-name="Elipse 4076" cx="3.798" cy="3.798" r="3.798" transform="translate(77.991)" fill="#ffca00"/>
      <circle id="Elipse_4082" data-name="Elipse 4082" cx="3.798" cy="3.798" r="3.798" transform="translate(39.502)" fill="#ffca00"/>
      <circle id="Elipse_4088" data-name="Elipse 4088" cx="3.798" cy="3.798" r="3.798" fill="#ffca00"/>
      <circle id="Elipse_4054" data-name="Elipse 4054" cx="3.798" cy="3.798" r="3.798" transform="translate(193.457 40.515)" fill="#ffca00"/>
      <circle id="Elipse_4063" data-name="Elipse 4063" cx="3.798" cy="3.798" r="3.798" transform="translate(154.968 40.515)" fill="#ffca00"/>
      <circle id="Elipse_4069" data-name="Elipse 4069" cx="3.798" cy="3.798" r="3.798" transform="translate(116.479 40.515)" fill="#ffca00"/>
      <circle id="Elipse_4075" data-name="Elipse 4075" cx="3.798" cy="3.798" r="3.798" transform="translate(77.991 40.515)" fill="#ffca00"/>
      <circle id="Elipse_4081" data-name="Elipse 4081" cx="3.798" cy="3.798" r="3.798" transform="translate(39.502 40.515)" fill="#ffca00"/>
      <circle id="Elipse_4087" data-name="Elipse 4087" cx="3.798" cy="3.798" r="3.798" transform="translate(0 40.515)" fill="#ffca00"/>
      <circle id="Elipse_4055" data-name="Elipse 4055" cx="3.798" cy="3.798" r="3.798" transform="translate(193.457 81.029)" fill="#ffca00"/>
      <circle id="Elipse_4062" data-name="Elipse 4062" cx="3.798" cy="3.798" r="3.798" transform="translate(154.968 81.029)" fill="#ffca00"/>
      <circle id="Elipse_4068" data-name="Elipse 4068" cx="3.798" cy="3.798" r="3.798" transform="translate(116.479 81.029)" fill="#ffca00"/>
      <circle id="Elipse_4074" data-name="Elipse 4074" cx="3.798" cy="3.798" r="3.798" transform="translate(77.991 81.029)" fill="#ffca00"/>
      <circle id="Elipse_4080" data-name="Elipse 4080" cx="3.798" cy="3.798" r="3.798" transform="translate(39.502 81.029)" fill="#ffca00"/>
      <circle id="Elipse_4086" data-name="Elipse 4086" cx="3.798" cy="3.798" r="3.798" transform="translate(0 81.029)" fill="#ffca00"/>
      <circle id="Elipse_4056" data-name="Elipse 4056" cx="3.798" cy="3.798" r="3.798" transform="translate(193.457 121.544)" fill="#ffca00"/>
      <circle id="Elipse_4061" data-name="Elipse 4061" cx="3.798" cy="3.798" r="3.798" transform="translate(154.968 121.544)" fill="#ffca00"/>
      <circle id="Elipse_4067" data-name="Elipse 4067" cx="3.798" cy="3.798" r="3.798" transform="translate(116.479 121.544)" fill="#ffca00"/>
      <circle id="Elipse_4073" data-name="Elipse 4073" cx="3.798" cy="3.798" r="3.798" transform="translate(77.991 121.544)" fill="#ffca00"/>
      <circle id="Elipse_4079" data-name="Elipse 4079" cx="3.798" cy="3.798" r="3.798" transform="translate(39.502 121.544)" fill="#ffca00"/>
      <circle id="Elipse_4085" data-name="Elipse 4085" cx="3.798" cy="3.798" r="3.798" transform="translate(0 121.544)" fill="#ffca00"/>
      <circle id="Elipse_4057" data-name="Elipse 4057" cx="3.798" cy="3.798" r="3.798" transform="translate(193.457 162.058)" fill="#ffca00"/>
      <circle id="Elipse_4060" data-name="Elipse 4060" cx="3.798" cy="3.798" r="3.798" transform="translate(154.968 162.058)" fill="#ffca00"/>
      <circle id="Elipse_4066" data-name="Elipse 4066" cx="3.798" cy="3.798" r="3.798" transform="translate(116.479 162.058)" fill="#ffca00"/>
      <circle id="Elipse_4072" data-name="Elipse 4072" cx="3.798" cy="3.798" r="3.798" transform="translate(77.991 162.058)" fill="#ffca00"/>
      <circle id="Elipse_4078" data-name="Elipse 4078" cx="3.798" cy="3.798" r="3.798" transform="translate(39.502 162.058)" fill="#ffca00"/>
      <circle id="Elipse_4084" data-name="Elipse 4084" cx="3.798" cy="3.798" r="3.798" transform="translate(0 162.058)" fill="#ffca00"/>
      <circle id="Elipse_4058" data-name="Elipse 4058" cx="3.798" cy="3.798" r="3.798" transform="translate(193.457 202.573)" fill="#ffca00"/>
      <circle id="Elipse_4059" data-name="Elipse 4059" cx="3.798" cy="3.798" r="3.798" transform="translate(154.968 202.573)" fill="#ffca00"/>
      <circle id="Elipse_4065" data-name="Elipse 4065" cx="3.798" cy="3.798" r="3.798" transform="translate(116.479 202.573)" fill="#ffca00"/>
      <circle id="Elipse_4071" data-name="Elipse 4071" cx="3.798" cy="3.798" r="3.798" transform="translate(77.991 202.573)" fill="#ffca00"/>
      <circle id="Elipse_4077" data-name="Elipse 4077" cx="3.798" cy="3.798" r="3.798" transform="translate(39.502 202.573)" fill="#ffca00"/>
      <circle id="Elipse_4083" data-name="Elipse 4083" cx="3.798" cy="3.798" r="3.798" transform="translate(0 202.573)" fill="#ffca00"/>
    </g>
    <g id="Grupo_118260" data-name="Grupo 118260" transform="translate(292.57 2996) rotate(90)">
      <path id="Trazado_100597" data-name="Trazado 100597" d="M0,3.308,3.308,0,14.857,11.548l3.308,3.308-3.308,3.308L3.308,29.713,0,26.4,11.548,14.857Z" transform="translate(60.265)" fill="#fe502d"/>
      <path id="Trazado_100598" data-name="Trazado 100598" d="M0,3.308,3.308,0,14.857,11.548l3.308,3.308-3.308,3.308L3.308,29.713,0,26.4,11.548,14.857Z" transform="translate(45.199)" fill="#fe502d"/>
      <path id="Trazado_100599" data-name="Trazado 100599" d="M0,3.308,3.308,0,14.857,11.548l3.308,3.308-3.308,3.308L3.308,29.713,0,26.4,11.548,14.857Z" transform="translate(30.133)" fill="#fe502d"/>
      <path id="Trazado_100600" data-name="Trazado 100600" d="M0,3.308,3.308,0,14.857,11.548l3.308,3.308-3.308,3.308L3.308,29.713,0,26.4,11.548,14.857Z" transform="translate(15.066)" fill="#fe502d"/>
      <path id="Trazado_100601" data-name="Trazado 100601" d="M11.548,14.857,0,3.308,3.308,0,14.857,11.548l3.308,3.308-3.308,3.308L3.308,29.713,0,26.4Z" fill="#fe502d"/>
    </g>
    <g id="Grupo_118261" data-name="Grupo 118261" transform="translate(1337 3768.431) rotate(-90)">
      <path id="Trazado_100597-2" data-name="Trazado 100597" d="M0,3.308,3.308,0,14.857,11.548l3.308,3.308-3.308,3.308L3.308,29.713,0,26.4,11.548,14.857Z" transform="translate(60.265)" fill="#2d54fe"/>
      <path id="Trazado_100598-2" data-name="Trazado 100598" d="M0,3.308,3.308,0,14.857,11.548l3.308,3.308-3.308,3.308L3.308,29.713,0,26.4,11.548,14.857Z" transform="translate(45.199)" fill="#2d54fe"/>
      <path id="Trazado_100599-2" data-name="Trazado 100599" d="M0,3.308,3.308,0,14.857,11.548l3.308,3.308-3.308,3.308L3.308,29.713,0,26.4,11.548,14.857Z" transform="translate(30.133)" fill="#2d54fe"/>
      <path id="Trazado_100600-2" data-name="Trazado 100600" d="M0,3.308,3.308,0,14.857,11.548l3.308,3.308-3.308,3.308L3.308,29.713,0,26.4,11.548,14.857Z" transform="translate(15.066)" fill="#2d54fe"/>
      <path id="Trazado_100601-2" data-name="Trazado 100601" d="M11.548,14.857,0,3.308,3.308,0,14.857,11.548l3.308,3.308-3.308,3.308L3.308,29.713,0,26.4Z" fill="#2d54fe"/>
    </g>
    <g id="Grupo_118258" data-name="Grupo 118258" transform="translate(325.375 2952.5)">
      <rect id="Rectángulo_37033" data-name="Rectángulo 37033" width="162" height="53.5" rx="10" transform="translate(333.5 51.5)" fill="#2d54fe"/>
      <rect id="Rectángulo_37034" data-name="Rectángulo 37034" width="161.5" height="53.5" rx="10" transform="translate(334 123.5)" fill="#2d54fe"/>
      <rect id="Rectángulo_37035" data-name="Rectángulo 37035" width="323.5" height="53.5" rx="10" transform="translate(73.75 282.5)" fill="#2d54fe"/>
      <rect id="Rectángulo_37036" data-name="Rectángulo 37036" width="323.5" height="53.5" rx="10" transform="translate(73.75 352.5)" fill="#2d54fe"/>
      <rect id="Rectángulo_37037" data-name="Rectángulo 37037" width="323.5" height="53.5" rx="10" transform="translate(73.75 422.5)" fill="#2d54fe"/>
      <rect id="Rectángulo_37038" data-name="Rectángulo 37038" width="323.5" height="53.5" rx="10" transform="translate(73.75 492.5)" fill="#2d54fe"/>
      <rect id="Rectángulo_37039" data-name="Rectángulo 37039" width="323.5" height="53.5" rx="10" transform="translate(73.75 562.5)" fill="#2d54fe"/>
      <rect id="Rectángulo_37040" data-name="Rectángulo 37040" width="214.75" height="53.5" transform="translate(68.625 705.5)" fill="#2d54fe"/>
      <rect id="Rectángulo_37041" data-name="Rectángulo 37041" width="273.375" height="53.5" transform="translate(312 705.5)" fill="#2d54fe"/>
      <rect id="Rectángulo_37042" data-name="Rectángulo 37042" width="161.5" height="53.5" transform="translate(609.875 705.5)" fill="#2d54fe"/>
      <rect id="Rectángulo_37043" data-name="Rectángulo 37043" width="85.5" height="53.5" transform="translate(795.875 705.5)" fill="#2d54fe"/>
      <rect id="Rectángulo_37044" data-name="Rectángulo 37044" width="63.5" height="53.5" rx="10" transform="translate(432 197.5)" fill="#2d54fe"/>
      <rect id="Rectángulo_37045" data-name="Rectángulo 37045" width="63.5" height="53.5" rx="10" transform="translate(334 197.5)" fill="#2d54fe"/>
      <rect id="Rectángulo_37046" data-name="Rectángulo 37046" width="63.5" height="53.5" rx="10" transform="translate(252.75 636.5)" fill="#2d54fe"/>
      <rect id="Rectángulo_37047" data-name="Rectángulo 37047" width="63.5" height="53.5" rx="10" transform="translate(154.75 636.5)" fill="#2d54fe"/>
      <path id="Trazado_180875" data-name="Trazado 180875" d="M495,224.25H838.625V705.5" fill="none" stroke="#fe502d" stroke-miterlimit="10" stroke-width="3"/>
      <line id="Línea_142" data-name="Línea 142" x2="522" transform="translate(316.5 663.25)" fill="none" stroke="#fe502d" stroke-miterlimit="10" stroke-width="3"/>
      <path id="Trazado_180876" data-name="Trazado 180876" d="M413.75,251v13H285v18.5" transform="translate(-48.25)" fill="none" stroke="#fe502d" stroke-miterlimit="10" stroke-width="3"/>
      <line id="Línea_143" data-name="Línea 143" y2="16.5" transform="translate(236.75 336)" fill="none" stroke="#fe502d" stroke-miterlimit="10" stroke-width="3"/>
      <line id="Línea_144" data-name="Línea 144" y2="19" transform="translate(414.75 105)" fill="none" stroke="#fe502d" stroke-miterlimit="10" stroke-width="3"/>
      <line id="Línea_145" data-name="Línea 145" y2="16.5" transform="translate(236.75 406)" fill="none" stroke="#fe502d" stroke-miterlimit="10" stroke-width="3"/>
      <line id="Línea_146" data-name="Línea 146" y2="16.5" transform="translate(236.75 476)" fill="none" stroke="#fe502d" stroke-miterlimit="10" stroke-width="3"/>
      <line id="Línea_147" data-name="Línea 147" y2="16.5" transform="translate(236.75 546)" fill="none" stroke="#fe502d" stroke-miterlimit="10" stroke-width="3"/>
      <path id="Trazado_180877" data-name="Trazado 180877" d="M293.059,616v11.5H333.5v9" transform="translate(-49.25)" fill="none" stroke="#fe502d" stroke-miterlimit="10" stroke-width="3"/>
      <path id="Trazado_180878" data-name="Trazado 180878" d="M277.529,616v10.5H235.5v10" transform="translate(-49.25)" fill="none" stroke="#fe502d" stroke-miterlimit="10" stroke-width="3"/>
      <path id="Trazado_180879" data-name="Trazado 180879" d="M423.059,177v11.5H463.5v9" fill="none" stroke="#fe502d" stroke-miterlimit="10" stroke-width="3"/>
      <path id="Trazado_180880" data-name="Trazado 180880" d="M407.529,177v10.5H365.5v10" fill="none" stroke="#fe502d" stroke-miterlimit="10" stroke-width="3"/>
      <line id="Línea_148" data-name="Línea 148" y2="15.5" transform="translate(186.5 690)" fill="none" stroke="#fe502d" stroke-miterlimit="10" stroke-width="3"/>
      <line id="Línea_149" data-name="Línea 149" y1="0.044" x2="29.125" transform="translate(283.375 732.25)" fill="none" stroke="#fe502d" stroke-miterlimit="10" stroke-width="3"/>
      <line id="Línea_150" data-name="Línea 150" x2="24.5" transform="translate(585.375 732.294)" fill="none" stroke="#fe502d" stroke-miterlimit="10" stroke-width="3"/>
      <line id="Línea_151" data-name="Línea 151" x2="24.5" transform="translate(771.375 732.294)" fill="none" stroke="#fe502d" stroke-miterlimit="10" stroke-width="3"/>
      <path id="Trazado_180905" data-name="Trazado 180905" d="M-86.937,0V-11.375h4.086a5.786,5.786,0,0,1,3.34.8,2.677,2.677,0,0,1,1.145,2.336,2.706,2.706,0,0,1-.406,1.508,2.367,2.367,0,0,1-1.2.922A2.4,2.4,0,0,1-78.6-4.93a2.544,2.544,0,0,1,.477,1.563A3.012,3.012,0,0,1-79.184-.855,5.038,5.038,0,0,1-82.32,0ZM-84.2-4.836v2.727h1.8a1.709,1.709,0,0,0,1.141-.34,1.189,1.189,0,0,0,.4-.957,1.261,1.261,0,0,0-1.414-1.43Zm0-1.8h1.43a2.031,2.031,0,0,0,1.281-.329A1.168,1.168,0,0,0-81.1-7.91a1.226,1.226,0,0,0-.414-1.038,2.216,2.216,0,0,0-1.336-.317H-84.2Zm16.5-4.742V-3.93a4.279,4.279,0,0,1-.539,2.191,3.492,3.492,0,0,1-1.547,1.41,5.449,5.449,0,0,1-2.383.484A4.708,4.708,0,0,1-75.437-.922a3.845,3.845,0,0,1-1.219-2.953v-7.5H-73.9V-3.82q.047,1.867,1.734,1.867a1.679,1.679,0,0,0,1.289-.469,2.191,2.191,0,0,0,.438-1.523v-7.43Zm7.578,8.352a1.127,1.127,0,0,0-.426-.937,5.292,5.292,0,0,0-1.5-.7,14.353,14.353,0,0,1-1.75-.7A3.314,3.314,0,0,1-66-8.336,2.676,2.676,0,0,1-65.449-10a3.562,3.562,0,0,1,1.559-1.125,6.065,6.065,0,0,1,2.266-.4,5.305,5.305,0,0,1,2.2.438,3.482,3.482,0,0,1,1.512,1.246A3.254,3.254,0,0,1-57.375-8h-2.734a1.375,1.375,0,0,0-.426-1.078,1.66,1.66,0,0,0-1.152-.383,1.872,1.872,0,0,0-1.16.324,1,1,0,0,0-.426.824,1,1,0,0,0,.469.793,5.911,5.911,0,0,0,1.648.734,10.1,10.1,0,0,1,1.938.816,3.256,3.256,0,0,1,1.844,2.93A2.778,2.778,0,0,1-58.5-.7a5,5,0,0,1-3.086.852,6.122,6.122,0,0,1-2.5-.5A3.775,3.775,0,0,1-65.777-1.7a3.542,3.542,0,0,1-.566-1.988h2.75a1.744,1.744,0,0,0,.473,1.348,2.234,2.234,0,0,0,1.535.434A1.765,1.765,0,0,0-60.512-2.2.967.967,0,0,0-60.117-3.023Zm13.352-.828a4.154,4.154,0,0,1-.641,2.1,3.866,3.866,0,0,1-1.645,1.41,5.6,5.6,0,0,1-2.418.5A4.467,4.467,0,0,1-55-1.3,6.032,6.032,0,0,1-56.289-5.43v-.562a6.885,6.885,0,0,1,.582-2.926,4.41,4.41,0,0,1,1.676-1.937,4.676,4.676,0,0,1,2.531-.684,4.9,4.9,0,0,1,3.328,1.09,4.306,4.306,0,0,1,1.43,3h-2.734A2.037,2.037,0,0,0-50-8.937a2.153,2.153,0,0,0-1.5-.453,1.638,1.638,0,0,0-1.5.766,4.921,4.921,0,0,0-.5,2.445v.8a5.445,5.445,0,0,0,.457,2.6,1.672,1.672,0,0,0,1.574.781,2.106,2.106,0,0,0,1.445-.445,1.89,1.89,0,0,0,.531-1.414Zm7.758,1.727h-3.758L-43.422,0h-2.93l4.172-11.375H-39.6L-35.4,0h-2.945Zm-3.1-2.117h2.445l-1.227-3.945Zm11.766.219h-1.484V0H-34.57V-11.375h4.477a5,5,0,0,1,3.164.9,3.041,3.041,0,0,1,1.141,2.536,3.693,3.693,0,0,1-.48,1.967,3.41,3.41,0,0,1-1.5,1.264L-25.4-.117V0h-2.937Zm-1.484-2.109h1.734a1.557,1.557,0,0,0,1.176-.411,1.59,1.59,0,0,0,.395-1.147,1.608,1.608,0,0,0-.4-1.155,1.542,1.542,0,0,0-1.172-.419h-1.734ZM-17.227,0h-2.734V-11.375h2.734ZM-5.82,0H-8.547l-4.031-7.078V0H-15.32V-11.375h2.742L-8.555-4.3v-7.078H-5.82Zm8.9-4.531H-1.344V0H-4.086V-11.375H3.523v2.117H-1.344v2.617H3.078ZM14.3-5.453a6.708,6.708,0,0,1-.617,2.945A4.561,4.561,0,0,1,11.926-.535a4.884,4.884,0,0,1-2.59.691A4.953,4.953,0,0,1,6.758-.512,4.554,4.554,0,0,1,5-2.422a6.515,6.515,0,0,1-.66-2.852v-.641a6.737,6.737,0,0,1,.613-2.949,4.55,4.55,0,0,1,1.758-1.973,4.918,4.918,0,0,1,2.605-.7,4.87,4.87,0,0,1,2.578.688A4.632,4.632,0,0,1,13.66-8.887a6.544,6.544,0,0,1,.637,2.91ZM11.508-5.93A4.783,4.783,0,0,0,10.941-8.5,1.817,1.817,0,0,0,9.32-9.383q-2.062,0-2.18,3.094l-.008.836a4.92,4.92,0,0,0,.555,2.57,1.814,1.814,0,0,0,1.648.9,1.792,1.792,0,0,0,1.6-.883,4.785,4.785,0,0,0,.57-2.539Zm8.43,1.906H18.453V0H15.711V-11.375h4.477a5,5,0,0,1,3.164.9,3.041,3.041,0,0,1,1.141,2.536,3.693,3.693,0,0,1-.48,1.967,3.41,3.41,0,0,1-1.5,1.264L24.883-.117V0H21.945ZM18.453-6.133h1.734a1.557,1.557,0,0,0,1.176-.411,1.59,1.59,0,0,0,.395-1.147,1.608,1.608,0,0,0-.4-1.155,1.542,1.542,0,0,0-1.172-.419H18.453Zm11.3-5.242,2.539,7.914,2.531-7.914H38.43V0H35.68V-2.656l.266-5.437L33.2,0H31.383L28.625-8.1l.266,5.445V0H26.148V-11.375Zm17.023,9.25H43.016L42.359,0H39.43L43.6-11.375H46.18L50.383,0H47.438Zm-3.1-2.117h2.445L44.891-8.187Zm16.578.391a4.154,4.154,0,0,1-.641,2.1,3.866,3.866,0,0,1-1.645,1.41,5.6,5.6,0,0,1-2.418.5A4.467,4.467,0,0,1,52.016-1.3,6.032,6.032,0,0,1,50.727-5.43v-.562a6.885,6.885,0,0,1,.582-2.926,4.41,4.41,0,0,1,1.676-1.937,4.676,4.676,0,0,1,2.531-.684,4.9,4.9,0,0,1,3.328,1.09,4.306,4.306,0,0,1,1.43,3H57.539a2.037,2.037,0,0,0-.523-1.492,2.153,2.153,0,0,0-1.5-.453,1.638,1.638,0,0,0-1.5.766,4.921,4.921,0,0,0-.5,2.445v.8a5.445,5.445,0,0,0,.457,2.6,1.672,1.672,0,0,0,1.574.781,2.106,2.106,0,0,0,1.445-.445,1.89,1.89,0,0,0,.531-1.414ZM64.469,0H61.734V-11.375h2.734ZM76.008-5.453a6.708,6.708,0,0,1-.617,2.945A4.561,4.561,0,0,1,73.637-.535a4.884,4.884,0,0,1-2.59.691,4.953,4.953,0,0,1-2.578-.668,4.554,4.554,0,0,1-1.754-1.91,6.515,6.515,0,0,1-.66-2.852v-.641a6.738,6.738,0,0,1,.613-2.949,4.55,4.55,0,0,1,1.758-1.973,4.918,4.918,0,0,1,2.605-.7,4.87,4.87,0,0,1,2.578.688,4.632,4.632,0,0,1,1.762,1.957,6.544,6.544,0,0,1,.637,2.91ZM73.219-5.93A4.783,4.783,0,0,0,72.652-8.5a1.817,1.817,0,0,0-1.621-.879q-2.062,0-2.18,3.094l-.008.836a4.92,4.92,0,0,0,.555,2.57,1.814,1.814,0,0,0,1.648.9,1.792,1.792,0,0,0,1.6-.883,4.785,4.785,0,0,0,.57-2.539ZM86.922,0H84.2L80.164-7.078V0H77.422V-11.375h2.742L84.188-4.3v-7.078h2.734Zm-153.2,20V8.625h3.664a5.39,5.39,0,0,1,2.711.684,4.805,4.805,0,0,1,1.879,1.93,5.826,5.826,0,0,1,.684,2.793v.523a5.86,5.86,0,0,1-.66,2.8,4.826,4.826,0,0,1-1.859,1.938A5.271,5.271,0,0,1-62.539,20Zm2.742-9.258v7.148h.953a2.133,2.133,0,0,0,1.813-.84,4.116,4.116,0,0,0,.633-2.5v-.492a4.082,4.082,0,0,0-.633-2.484,2.17,2.17,0,0,0-1.844-.836Zm14.656,4.43H-53.2v2.719H-48.1V20h-7.836V8.625h7.852v2.117H-53.2v2.4h4.313Zm8.625.969V20H-43V8.625h4.539a5.287,5.287,0,0,1,2.309.48A3.621,3.621,0,0,1-34.6,10.473a3.734,3.734,0,0,1,.551,2.012,3.291,3.291,0,0,1-1.191,2.66,4.943,4.943,0,0,1-3.27,1Zm0-2.117h1.8a1.7,1.7,0,0,0,1.215-.4,1.48,1.48,0,0,0,.418-1.125,1.83,1.83,0,0,0-.43-1.273,1.522,1.522,0,0,0-1.172-.484h-1.828Zm11.9,1.953h-1.484V20h-2.742V8.625h4.477a5,5,0,0,1,3.164.9A3.041,3.041,0,0,1-23.8,12.059a3.693,3.693,0,0,1-.48,1.967,3.41,3.41,0,0,1-1.5,1.264l2.375,4.593V20h-2.937Zm-1.484-2.109h1.734a1.557,1.557,0,0,0,1.176-.411,1.59,1.59,0,0,0,.395-1.147,1.608,1.608,0,0,0-.4-1.155,1.542,1.542,0,0,0-1.172-.419h-1.734Zm17.328.68a6.708,6.708,0,0,1-.617,2.945,4.561,4.561,0,0,1-1.754,1.973,4.884,4.884,0,0,1-2.59.691,4.953,4.953,0,0,1-2.578-.668,4.554,4.554,0,0,1-1.754-1.91,6.515,6.515,0,0,1-.66-2.852v-.641a6.737,6.737,0,0,1,.613-2.949A4.55,4.55,0,0,1-20.1,9.164a4.918,4.918,0,0,1,2.605-.7,4.87,4.87,0,0,1,2.578.688,4.632,4.632,0,0,1,1.762,1.957,6.544,6.544,0,0,1,.637,2.91ZM-15.3,14.07a4.783,4.783,0,0,0-.566-2.574,1.817,1.817,0,0,0-1.621-.879q-2.062,0-2.18,3.094l-.008.836a4.92,4.92,0,0,0,.555,2.57,1.814,1.814,0,0,0,1.648.9,1.792,1.792,0,0,0,1.6-.883,4.785,4.785,0,0,0,.57-2.539Zm8.445,2.836,2.266-8.281h3.063L-5.359,20h-3l-3.8-11.375h3.039ZM6.352,15.172H2.039v2.719H7.133V20H-.7V8.625H7.148v2.117H2.039v2.4H6.352Zm8.953,0H10.992v2.719h5.094V20H8.25V8.625H16.1v2.117H10.992v2.4H15.3ZM17.2,20V8.625h3.664a5.39,5.39,0,0,1,2.711.684,4.805,4.805,0,0,1,1.879,1.93,5.826,5.826,0,0,1,.684,2.793v.523a5.86,5.86,0,0,1-.66,2.8,4.826,4.826,0,0,1-1.859,1.938A5.271,5.271,0,0,1,20.945,20Zm2.742-9.258v7.148H20.9a2.133,2.133,0,0,0,1.813-.84,4.116,4.116,0,0,0,.633-2.5v-.492a4.082,4.082,0,0,0-.633-2.484,2.17,2.17,0,0,0-1.844-.836Zm17.234,3.8a6.708,6.708,0,0,1-.617,2.945,4.561,4.561,0,0,1-1.754,1.973,4.884,4.884,0,0,1-2.59.691,4.953,4.953,0,0,1-2.578-.668,4.554,4.554,0,0,1-1.754-1.91,6.515,6.515,0,0,1-.66-2.852v-.641a6.737,6.737,0,0,1,.613-2.949A4.55,4.55,0,0,1,29.6,9.164a5.2,5.2,0,0,1,5.184-.008,4.632,4.632,0,0,1,1.762,1.957,6.544,6.544,0,0,1,.637,2.91Zm-2.789-.477a4.783,4.783,0,0,0-.566-2.574,1.817,1.817,0,0,0-1.621-.879q-2.062,0-2.18,3.094l-.008.836a4.92,4.92,0,0,0,.555,2.57,1.814,1.814,0,0,0,1.648.9,1.792,1.792,0,0,0,1.6-.883,4.785,4.785,0,0,0,.57-2.539Zm8.43,1.906H41.336V20H38.594V8.625H43.07a5,5,0,0,1,3.164.9,3.041,3.041,0,0,1,1.141,2.536,3.693,3.693,0,0,1-.48,1.967,3.41,3.41,0,0,1-1.5,1.264l2.375,4.593V20H44.828Zm-1.484-2.109H43.07a1.557,1.557,0,0,0,1.176-.411,1.59,1.59,0,0,0,.395-1.147,1.608,1.608,0,0,0-.4-1.155,1.542,1.542,0,0,0-1.172-.419H41.336Zm14.75,1.3H51.773v2.719h5.094V20H49.031V8.625h7.852v2.117H51.773v2.4h4.313Zm7.766,1.8a1.127,1.127,0,0,0-.426-.937,5.292,5.292,0,0,0-1.5-.7,14.353,14.353,0,0,1-1.75-.7,3.314,3.314,0,0,1-2.211-2.984A2.676,2.676,0,0,1,58.52,10a3.562,3.562,0,0,1,1.559-1.125,6.065,6.065,0,0,1,2.266-.4,5.305,5.305,0,0,1,2.2.438,3.482,3.482,0,0,1,1.512,1.246A3.254,3.254,0,0,1,66.594,12H63.859a1.375,1.375,0,0,0-.426-1.078,1.66,1.66,0,0,0-1.152-.383,1.872,1.872,0,0,0-1.16.324.955.955,0,0,0,.043,1.617,5.911,5.911,0,0,0,1.648.734,10.1,10.1,0,0,1,1.938.816,3.256,3.256,0,0,1,1.844,2.93A2.778,2.778,0,0,1,65.469,19.3a5,5,0,0,1-3.086.852,6.122,6.122,0,0,1-2.5-.5A3.775,3.775,0,0,1,58.191,18.3a3.542,3.542,0,0,1-.566-1.988h2.75a1.744,1.744,0,0,0,.473,1.348,2.234,2.234,0,0,0,1.535.434,1.765,1.765,0,0,0,1.074-.293A.967.967,0,0,0,63.852,16.977Z" transform="translate(236.75 304.75)" fill="#fff"/>
      <path id="Trazado_180906" data-name="Trazado 180906" d="M-98.578,0V-11.375h4.086a5.786,5.786,0,0,1,3.34.8,2.677,2.677,0,0,1,1.145,2.336,2.706,2.706,0,0,1-.406,1.508,2.367,2.367,0,0,1-1.2.922,2.4,2.4,0,0,1,1.367.875,2.544,2.544,0,0,1,.477,1.563A3.012,3.012,0,0,1-90.824-.855,5.038,5.038,0,0,1-93.961,0Zm2.742-4.836v2.727h1.8a1.709,1.709,0,0,0,1.141-.34,1.189,1.189,0,0,0,.4-.957,1.261,1.261,0,0,0-1.414-1.43Zm0-1.8h1.43a2.031,2.031,0,0,0,1.281-.329,1.168,1.168,0,0,0,.383-.948,1.226,1.226,0,0,0-.414-1.038,2.216,2.216,0,0,0-1.336-.317h-1.344Zm16.5-4.742V-3.93a4.279,4.279,0,0,1-.539,2.191,3.492,3.492,0,0,1-1.547,1.41A5.449,5.449,0,0,1-83.8.156,4.708,4.708,0,0,1-87.078-.922,3.845,3.845,0,0,1-88.3-3.875v-7.5h2.758V-3.82q.047,1.867,1.734,1.867a1.679,1.679,0,0,0,1.289-.469,2.191,2.191,0,0,0,.438-1.523v-7.43Zm7.578,8.352a1.127,1.127,0,0,0-.426-.937,5.292,5.292,0,0,0-1.5-.7,14.353,14.353,0,0,1-1.75-.7,3.314,3.314,0,0,1-2.211-2.984A2.676,2.676,0,0,1-77.09-10a3.562,3.562,0,0,1,1.559-1.125,6.065,6.065,0,0,1,2.266-.4,5.305,5.305,0,0,1,2.2.438,3.482,3.482,0,0,1,1.512,1.246A3.254,3.254,0,0,1-69.016-8H-71.75a1.375,1.375,0,0,0-.426-1.078,1.66,1.66,0,0,0-1.152-.383,1.872,1.872,0,0,0-1.16.324,1,1,0,0,0-.426.824,1,1,0,0,0,.469.793,5.911,5.911,0,0,0,1.648.734,10.1,10.1,0,0,1,1.938.816,3.256,3.256,0,0,1,1.844,2.93A2.778,2.778,0,0,1-70.141-.7a5,5,0,0,1-3.086.852,6.122,6.122,0,0,1-2.5-.5A3.775,3.775,0,0,1-77.418-1.7a3.542,3.542,0,0,1-.566-1.988h2.75a1.745,1.745,0,0,0,.473,1.348,2.234,2.234,0,0,0,1.535.434A1.765,1.765,0,0,0-72.152-2.2.967.967,0,0,0-71.758-3.023Zm13.352-.828a4.154,4.154,0,0,1-.641,2.1,3.866,3.866,0,0,1-1.645,1.41,5.6,5.6,0,0,1-2.418.5A4.467,4.467,0,0,1-66.641-1.3,6.032,6.032,0,0,1-67.93-5.43v-.562a6.885,6.885,0,0,1,.582-2.926,4.41,4.41,0,0,1,1.676-1.937,4.676,4.676,0,0,1,2.531-.684,4.9,4.9,0,0,1,3.328,1.09,4.306,4.306,0,0,1,1.43,3h-2.734a2.037,2.037,0,0,0-.523-1.492,2.153,2.153,0,0,0-1.5-.453,1.638,1.638,0,0,0-1.5.766,4.921,4.921,0,0,0-.5,2.445v.8a5.445,5.445,0,0,0,.457,2.6,1.672,1.672,0,0,0,1.574.781,2.106,2.106,0,0,0,1.445-.445,1.89,1.89,0,0,0,.531-1.414Zm7.758,1.727h-3.758L-55.062,0h-2.93l4.172-11.375h2.578L-47.039,0h-2.945Zm-3.1-2.117H-51.3l-1.227-3.945Zm11.766.219h-1.484V0h-2.742V-11.375h4.477a5,5,0,0,1,3.164.9A3.041,3.041,0,0,1-37.43-7.941a3.693,3.693,0,0,1-.48,1.967,3.41,3.41,0,0,1-1.5,1.264l2.375,4.593V0h-2.937Zm-1.484-2.109h1.734a1.557,1.557,0,0,0,1.176-.411,1.59,1.59,0,0,0,.395-1.147,1.608,1.608,0,0,0-.4-1.155,1.542,1.542,0,0,0-1.172-.419h-1.734ZM-28.867,0H-31.6V-11.375h2.734Zm11.406,0h-2.727l-4.031-7.078V0h-2.742V-11.375h2.742L-20.2-4.3v-7.078h2.734Zm8.9-4.531h-4.422V0h-2.742V-11.375h7.609v2.117h-4.867v2.617h4.422ZM2.656-5.453a6.708,6.708,0,0,1-.617,2.945A4.561,4.561,0,0,1,.285-.535,4.884,4.884,0,0,1-2.3.156,4.953,4.953,0,0,1-4.883-.512a4.554,4.554,0,0,1-1.754-1.91A6.515,6.515,0,0,1-7.3-5.273v-.641a6.737,6.737,0,0,1,.613-2.949,4.55,4.55,0,0,1,1.758-1.973,4.918,4.918,0,0,1,2.605-.7,4.87,4.87,0,0,1,2.578.688A4.632,4.632,0,0,1,2.02-8.887a6.544,6.544,0,0,1,.637,2.91ZM-.133-5.93A4.783,4.783,0,0,0-.7-8.5,1.817,1.817,0,0,0-2.32-9.383q-2.062,0-2.18,3.094l-.008.836a4.92,4.92,0,0,0,.555,2.57,1.814,1.814,0,0,0,1.648.9A1.792,1.792,0,0,0-.7-2.867a4.785,4.785,0,0,0,.57-2.539ZM8.3-4.023H6.813V0H4.07V-11.375H8.547a5,5,0,0,1,3.164.9,3.041,3.041,0,0,1,1.141,2.536,3.693,3.693,0,0,1-.48,1.967,3.41,3.41,0,0,1-1.5,1.264L13.242-.117V0H10.3ZM6.813-6.133H8.547a1.557,1.557,0,0,0,1.176-.411,1.59,1.59,0,0,0,.395-1.147,1.608,1.608,0,0,0-.4-1.155,1.542,1.542,0,0,0-1.172-.419H6.813Zm11.3-5.242,2.539,7.914,2.531-7.914h3.609V0h-2.75V-2.656L24.3-8.094,21.555,0H19.742L16.984-8.1l.266,5.445V0H14.508V-11.375Zm17.023,9.25H31.375L30.719,0h-2.93l4.172-11.375h2.578L38.742,0H35.8Zm-3.1-2.117h2.445L33.25-8.187Zm16.578.391a4.154,4.154,0,0,1-.641,2.1,3.866,3.866,0,0,1-1.645,1.41,5.6,5.6,0,0,1-2.418.5A4.467,4.467,0,0,1,40.375-1.3,6.032,6.032,0,0,1,39.086-5.43v-.562a6.885,6.885,0,0,1,.582-2.926,4.41,4.41,0,0,1,1.676-1.937,4.676,4.676,0,0,1,2.531-.684,4.9,4.9,0,0,1,3.328,1.09,4.306,4.306,0,0,1,1.43,3H45.9a2.037,2.037,0,0,0-.523-1.492,2.153,2.153,0,0,0-1.5-.453,1.638,1.638,0,0,0-1.5.766,4.921,4.921,0,0,0-.5,2.445v.8a5.445,5.445,0,0,0,.457,2.6,1.672,1.672,0,0,0,1.574.781,2.106,2.106,0,0,0,1.445-.445,1.89,1.89,0,0,0,.531-1.414ZM52.828,0H50.094V-11.375h2.734ZM64.367-5.453a6.708,6.708,0,0,1-.617,2.945A4.561,4.561,0,0,1,62-.535a4.884,4.884,0,0,1-2.59.691,4.953,4.953,0,0,1-2.578-.668,4.554,4.554,0,0,1-1.754-1.91,6.515,6.515,0,0,1-.66-2.852v-.641a6.737,6.737,0,0,1,.613-2.949,4.55,4.55,0,0,1,1.758-1.973,4.918,4.918,0,0,1,2.605-.7,4.87,4.87,0,0,1,2.578.688A4.632,4.632,0,0,1,63.73-8.887a6.544,6.544,0,0,1,.637,2.91ZM61.578-5.93A4.783,4.783,0,0,0,61.012-8.5a1.817,1.817,0,0,0-1.621-.879q-2.062,0-2.18,3.094l-.008.836a4.92,4.92,0,0,0,.555,2.57,1.814,1.814,0,0,0,1.648.9,1.792,1.792,0,0,0,1.6-.883,4.785,4.785,0,0,0,.57-2.539ZM75.281,0H72.555L68.523-7.078V0H65.781V-11.375h2.742L72.547-4.3v-7.078h2.734ZM81,0V-11.375h3.664a5.39,5.39,0,0,1,2.711.684,4.805,4.805,0,0,1,1.879,1.93,5.826,5.826,0,0,1,.684,2.793v.523a5.86,5.86,0,0,1-.66,2.8A4.826,4.826,0,0,1,87.418-.707,5.271,5.271,0,0,1,84.742,0Zm2.742-9.258v7.148H84.7a2.133,2.133,0,0,0,1.813-.84,4.116,4.116,0,0,0,.633-2.5v-.492a4.082,4.082,0,0,0-.633-2.484,2.17,2.17,0,0,0-1.844-.836ZM98.4-4.828H94.086v2.719H99.18V0H91.344V-11.375H99.2v2.117H94.086v2.4H98.4ZM-137.1,16.141V20h-2.742V8.625h4.539a5.287,5.287,0,0,1,2.309.48,3.621,3.621,0,0,1,1.555,1.367,3.734,3.734,0,0,1,.551,2.012,3.291,3.291,0,0,1-1.191,2.66,4.943,4.943,0,0,1-3.27,1Zm0-2.117h1.8a1.7,1.7,0,0,0,1.215-.4,1.48,1.48,0,0,0,.418-1.125,1.83,1.83,0,0,0-.43-1.273,1.522,1.522,0,0,0-1.172-.484H-137.1Zm11.9,1.953h-1.484V20h-2.742V8.625h4.477a5,5,0,0,1,3.164.9,3.041,3.041,0,0,1,1.141,2.536,3.693,3.693,0,0,1-.48,1.967,3.41,3.41,0,0,1-1.5,1.264l2.375,4.593V20H-123.2Zm-1.484-2.109h1.734a1.557,1.557,0,0,0,1.176-.411,1.59,1.59,0,0,0,.395-1.147,1.608,1.608,0,0,0-.4-1.155,1.542,1.542,0,0,0-1.172-.419h-1.734Zm17.328.68a6.708,6.708,0,0,1-.617,2.945,4.561,4.561,0,0,1-1.754,1.973,4.884,4.884,0,0,1-2.59.691,4.953,4.953,0,0,1-2.578-.668,4.554,4.554,0,0,1-1.754-1.91,6.515,6.515,0,0,1-.66-2.852v-.641a6.738,6.738,0,0,1,.613-2.949,4.55,4.55,0,0,1,1.758-1.973,4.918,4.918,0,0,1,2.605-.7,4.87,4.87,0,0,1,2.578.688A4.632,4.632,0,0,1-110,11.113a6.544,6.544,0,0,1,.637,2.91Zm-2.789-.477a4.783,4.783,0,0,0-.566-2.574,1.817,1.817,0,0,0-1.621-.879q-2.062,0-2.18,3.094l-.008.836a4.92,4.92,0,0,0,.555,2.57,1.814,1.814,0,0,0,1.648.9,1.792,1.792,0,0,0,1.6-.883,4.785,4.785,0,0,0,.57-2.539Zm8.445,2.836,2.266-8.281h3.063L-102.2,20h-3L-109,8.625h3.039Zm13.211-1.734H-94.8v2.719h5.094V20h-7.836V8.625H-89.7v2.117H-94.8v2.4h4.313Zm8.953,0h-4.312v2.719h5.094V20h-7.836V8.625h7.852v2.117h-5.109v2.4h4.313Zm1.9,4.828V8.625h3.664a5.39,5.39,0,0,1,2.711.684,4.805,4.805,0,0,1,1.879,1.93,5.826,5.826,0,0,1,.684,2.793v.523a5.86,5.86,0,0,1-.66,2.8,4.826,4.826,0,0,1-1.859,1.938A5.271,5.271,0,0,1-75.9,20Zm2.742-9.258v7.148h.953a2.133,2.133,0,0,0,1.813-.84,4.116,4.116,0,0,0,.633-2.5v-.492a4.082,4.082,0,0,0-.633-2.484,2.17,2.17,0,0,0-1.844-.836Zm17.234,3.8a6.708,6.708,0,0,1-.617,2.945,4.561,4.561,0,0,1-1.754,1.973,4.884,4.884,0,0,1-2.59.691,4.953,4.953,0,0,1-2.578-.668,4.554,4.554,0,0,1-1.754-1.91,6.515,6.515,0,0,1-.66-2.852v-.641A6.738,6.738,0,0,1-69,11.137a4.55,4.55,0,0,1,1.758-1.973,4.918,4.918,0,0,1,2.605-.7,4.87,4.87,0,0,1,2.578.688A4.632,4.632,0,0,1-60.3,11.113a6.544,6.544,0,0,1,.637,2.91Zm-2.789-.477A4.783,4.783,0,0,0-63.02,11.5a1.817,1.817,0,0,0-1.621-.879q-2.062,0-2.18,3.094l-.008.836a4.92,4.92,0,0,0,.555,2.57,1.814,1.814,0,0,0,1.648.9,1.792,1.792,0,0,0,1.6-.883,4.785,4.785,0,0,0,.57-2.539Zm8.43,1.906h-1.484V20H-58.25V8.625h4.477a5,5,0,0,1,3.164.9,3.041,3.041,0,0,1,1.141,2.536,3.693,3.693,0,0,1-.48,1.967,3.41,3.41,0,0,1-1.5,1.264l2.375,4.593V20h-2.937Zm-1.484-2.109h1.734a1.557,1.557,0,0,0,1.176-.411,1.59,1.59,0,0,0,.395-1.147,1.608,1.608,0,0,0-.4-1.155,1.542,1.542,0,0,0-1.172-.419h-1.734Zm14.75,1.3H-45.07v2.719h5.094V20h-7.836V8.625h7.852v2.117H-45.07v2.4h4.313Zm7.766,1.8a1.127,1.127,0,0,0-.426-.937,5.292,5.292,0,0,0-1.5-.7,14.353,14.353,0,0,1-1.75-.7,3.314,3.314,0,0,1-2.211-2.984A2.676,2.676,0,0,1-38.324,10a3.562,3.562,0,0,1,1.559-1.125,6.065,6.065,0,0,1,2.266-.4,5.305,5.305,0,0,1,2.2.438,3.482,3.482,0,0,1,1.512,1.246A3.254,3.254,0,0,1-30.25,12h-2.734a1.375,1.375,0,0,0-.426-1.078,1.66,1.66,0,0,0-1.152-.383,1.872,1.872,0,0,0-1.16.324,1,1,0,0,0-.426.824,1,1,0,0,0,.469.793,5.911,5.911,0,0,0,1.648.734,10.1,10.1,0,0,1,1.938.816,3.256,3.256,0,0,1,1.844,2.93A2.778,2.778,0,0,1-31.375,19.3a5,5,0,0,1-3.086.852,6.122,6.122,0,0,1-2.5-.5A3.775,3.775,0,0,1-38.652,18.3a3.542,3.542,0,0,1-.566-1.988h2.75A1.744,1.744,0,0,0-36,17.66a2.234,2.234,0,0,0,1.535.434,1.765,1.765,0,0,0,1.074-.293A.967.967,0,0,0-32.992,16.977Zm8.914,4h-1.867l3.883-12.352h1.875Zm18.023-4.828a4.154,4.154,0,0,1-.641,2.1,3.866,3.866,0,0,1-1.645,1.41,5.6,5.6,0,0,1-2.418.5A4.467,4.467,0,0,1-14.289,18.7a6.032,6.032,0,0,1-1.289-4.125v-.562A6.885,6.885,0,0,1-15,11.082,4.41,4.41,0,0,1-13.32,9.145a4.676,4.676,0,0,1,2.531-.684,4.9,4.9,0,0,1,3.328,1.09,4.306,4.306,0,0,1,1.43,3H-8.766a2.037,2.037,0,0,0-.523-1.492,2.153,2.153,0,0,0-1.5-.453,1.638,1.638,0,0,0-1.5.766,4.921,4.921,0,0,0-.5,2.445v.8a5.445,5.445,0,0,0,.457,2.6,1.672,1.672,0,0,0,1.574.781,2.106,2.106,0,0,0,1.445-.445,1.89,1.89,0,0,0,.531-1.414Zm10.93-1.6a6.708,6.708,0,0,1-.617,2.945A4.561,4.561,0,0,1,2.5,19.465a4.884,4.884,0,0,1-2.59.691,4.953,4.953,0,0,1-2.578-.668,4.554,4.554,0,0,1-1.754-1.91,6.515,6.515,0,0,1-.66-2.852v-.641a6.737,6.737,0,0,1,.613-2.949A4.55,4.55,0,0,1-2.707,9.164,4.918,4.918,0,0,1-.1,8.469a4.87,4.87,0,0,1,2.578.688,4.632,4.632,0,0,1,1.762,1.957,6.544,6.544,0,0,1,.637,2.91ZM2.086,14.07A4.783,4.783,0,0,0,1.52,11.5,1.817,1.817,0,0,0-.1,10.617q-2.062,0-2.18,3.094l-.008.836a4.92,4.92,0,0,0,.555,2.57,1.814,1.814,0,0,0,1.648.9,1.792,1.792,0,0,0,1.6-.883,4.785,4.785,0,0,0,.57-2.539ZM15.789,20H13.063L9.031,12.922V20H6.289V8.625H9.031L13.055,15.7V8.625h2.734Zm10.438-9.258H22.813V20H20.07V10.742H16.719V8.625h9.508Zm6.68,7.133H29.148L28.492,20h-2.93L29.734,8.625h2.578L36.516,20H33.57Zm-3.1-2.117H32.25l-1.227-3.945Zm16.578.391a4.154,4.154,0,0,1-.641,2.1,3.866,3.866,0,0,1-1.645,1.41,5.6,5.6,0,0,1-2.418.5A4.467,4.467,0,0,1,38.148,18.7a6.032,6.032,0,0,1-1.289-4.125v-.562a6.885,6.885,0,0,1,.582-2.926,4.41,4.41,0,0,1,1.676-1.937,4.676,4.676,0,0,1,2.531-.684,4.9,4.9,0,0,1,3.328,1.09,4.306,4.306,0,0,1,1.43,3H43.672a2.037,2.037,0,0,0-.523-1.492,2.153,2.153,0,0,0-1.5-.453,1.638,1.638,0,0,0-1.5.766,4.921,4.921,0,0,0-.5,2.445v.8a5.445,5.445,0,0,0,.457,2.6,1.672,1.672,0,0,0,1.574.781,2.106,2.106,0,0,0,1.445-.445,1.89,1.89,0,0,0,.531-1.414Zm10-5.406H52.969V20H50.227V10.742H46.875V8.625h9.508Zm10.57,3.8a6.708,6.708,0,0,1-.617,2.945,4.561,4.561,0,0,1-1.754,1.973,4.884,4.884,0,0,1-2.59.691,4.953,4.953,0,0,1-2.578-.668,4.554,4.554,0,0,1-1.754-1.91A6.515,6.515,0,0,1,57,14.727v-.641a6.737,6.737,0,0,1,.613-2.949,4.55,4.55,0,0,1,1.758-1.973,5.2,5.2,0,0,1,5.184-.008,4.632,4.632,0,0,1,1.762,1.957,6.544,6.544,0,0,1,.637,2.91Zm-2.789-.477A4.783,4.783,0,0,0,63.6,11.5a1.817,1.817,0,0,0-1.621-.879q-2.062,0-2.18,3.094l-.008.836a4.92,4.92,0,0,0,.555,2.57,1.814,1.814,0,0,0,1.648.9,1.792,1.792,0,0,0,1.6-.883,4.785,4.785,0,0,0,.57-2.539Zm10.07,2.906a1.127,1.127,0,0,0-.426-.937,5.292,5.292,0,0,0-1.5-.7,14.353,14.353,0,0,1-1.75-.7,3.314,3.314,0,0,1-2.211-2.984A2.676,2.676,0,0,1,68.9,10a3.562,3.562,0,0,1,1.559-1.125,6.065,6.065,0,0,1,2.266-.4,5.305,5.305,0,0,1,2.2.438,3.482,3.482,0,0,1,1.512,1.246A3.254,3.254,0,0,1,76.977,12H74.242a1.375,1.375,0,0,0-.426-1.078,1.66,1.66,0,0,0-1.152-.383,1.872,1.872,0,0,0-1.16.324.955.955,0,0,0,.043,1.617,5.911,5.911,0,0,0,1.648.734,10.1,10.1,0,0,1,1.938.816,3.256,3.256,0,0,1,1.844,2.93A2.778,2.778,0,0,1,75.852,19.3a5,5,0,0,1-3.086.852,6.122,6.122,0,0,1-2.5-.5A3.775,3.775,0,0,1,68.574,18.3a3.542,3.542,0,0,1-.566-1.988h2.75a1.745,1.745,0,0,0,.473,1.348,2.234,2.234,0,0,0,1.535.434A1.765,1.765,0,0,0,73.84,17.8.967.967,0,0,0,74.234,16.977Zm12.3-3.414,2.094-4.937h2.961l-3.664,7.289V20H85.141V15.914L81.484,8.625H84.43Zm19.07,2.586a4.154,4.154,0,0,1-.641,2.1,3.866,3.866,0,0,1-1.645,1.41,5.6,5.6,0,0,1-2.418.5A4.467,4.467,0,0,1,97.367,18.7a6.032,6.032,0,0,1-1.289-4.125v-.562a6.885,6.885,0,0,1,.582-2.926,4.41,4.41,0,0,1,1.676-1.937,4.676,4.676,0,0,1,2.531-.684,4.9,4.9,0,0,1,3.328,1.09,4.306,4.306,0,0,1,1.43,3h-2.734a2.037,2.037,0,0,0-.523-1.492,2.153,2.153,0,0,0-1.5-.453,1.638,1.638,0,0,0-1.5.766,4.921,4.921,0,0,0-.5,2.445v.8a5.445,5.445,0,0,0,.457,2.6,1.672,1.672,0,0,0,1.574.781,2.106,2.106,0,0,0,1.445-.445,1.89,1.89,0,0,0,.531-1.414ZM109.82,20h-2.734V8.625h2.734Zm10.609-9.258h-3.414V20h-2.742V10.742h-3.352V8.625h9.508Zm6.68,7.133h-3.758L122.7,20h-2.93l4.172-11.375h2.578L130.719,20h-2.945Zm-3.1-2.117h2.445l-1.227-3.945Zm13.406,1.219a1.127,1.127,0,0,0-.426-.937,5.292,5.292,0,0,0-1.5-.7,14.353,14.353,0,0,1-1.75-.7,3.314,3.314,0,0,1-2.211-2.984A2.676,2.676,0,0,1,132.082,10a3.562,3.562,0,0,1,1.559-1.125,6.065,6.065,0,0,1,2.266-.4,5.305,5.305,0,0,1,2.2.438,3.482,3.482,0,0,1,1.512,1.246A3.254,3.254,0,0,1,140.156,12h-2.734A1.375,1.375,0,0,0,137,10.922a1.66,1.66,0,0,0-1.152-.383,1.872,1.872,0,0,0-1.16.324.955.955,0,0,0,.043,1.617,5.911,5.911,0,0,0,1.648.734,10.1,10.1,0,0,1,1.938.816,3.256,3.256,0,0,1,1.844,2.93,2.778,2.778,0,0,1-1.125,2.344,5,5,0,0,1-3.086.852,6.122,6.122,0,0,1-2.5-.5,3.775,3.775,0,0,1-1.687-1.359,3.542,3.542,0,0,1-.566-1.988h2.75a1.744,1.744,0,0,0,.473,1.348,2.234,2.234,0,0,0,1.535.434,1.765,1.765,0,0,0,1.074-.293A.967.967,0,0,0,137.414,16.977Z" transform="translate(236.75 373.75)" fill="#fff"/>
      <path id="Trazado_180907" data-name="Trazado 180907" d="M-78.047-4.023h-1.484V0h-2.742V-11.375H-77.8a5,5,0,0,1,3.164.9,3.041,3.041,0,0,1,1.141,2.536,3.693,3.693,0,0,1-.48,1.967,3.41,3.41,0,0,1-1.5,1.264L-73.1-.117V0h-2.937Zm-1.484-2.109H-77.8a1.557,1.557,0,0,0,1.176-.411,1.59,1.59,0,0,0,.395-1.147,1.608,1.608,0,0,0-.4-1.155A1.542,1.542,0,0,0-77.8-9.266h-1.734Zm14.75,1.3h-4.312v2.719H-64V0h-7.836V-11.375h7.852v2.117h-5.109v2.4h4.313Zm11.1.977a4.154,4.154,0,0,1-.641,2.1,3.866,3.866,0,0,1-1.645,1.41,5.6,5.6,0,0,1-2.418.5A4.467,4.467,0,0,1-61.914-1.3,6.032,6.032,0,0,1-63.2-5.43v-.562a6.885,6.885,0,0,1,.582-2.926,4.41,4.41,0,0,1,1.676-1.937,4.676,4.676,0,0,1,2.531-.684,4.9,4.9,0,0,1,3.328,1.09,4.306,4.306,0,0,1,1.43,3h-2.734a2.037,2.037,0,0,0-.523-1.492,2.153,2.153,0,0,0-1.5-.453,1.638,1.638,0,0,0-1.5.766,4.921,4.921,0,0,0-.5,2.445v.8a5.445,5.445,0,0,0,.457,2.6,1.672,1.672,0,0,0,1.574.781,2.106,2.106,0,0,0,1.445-.445,1.89,1.89,0,0,0,.531-1.414ZM-49.461,0H-52.2V-11.375h2.734Zm1.906,0V-11.375h4.086a5.786,5.786,0,0,1,3.34.8,2.677,2.677,0,0,1,1.145,2.336,2.707,2.707,0,0,1-.406,1.508,2.367,2.367,0,0,1-1.2.922,2.4,2.4,0,0,1,1.367.875,2.544,2.544,0,0,1,.477,1.563A3.012,3.012,0,0,1-39.8-.855,5.038,5.038,0,0,1-42.937,0Zm2.742-4.836v2.727h1.8a1.709,1.709,0,0,0,1.141-.34,1.189,1.189,0,0,0,.4-.957,1.261,1.261,0,0,0-1.414-1.43Zm0-1.8h1.43A2.031,2.031,0,0,0-42.1-6.962a1.168,1.168,0,0,0,.383-.948,1.226,1.226,0,0,0-.414-1.038,2.216,2.216,0,0,0-1.336-.317h-1.344ZM-34.312,0h-2.734V-11.375h2.734Zm6.133-4.023h-1.484V0h-2.742V-11.375h4.477a5,5,0,0,1,3.164.9,3.041,3.041,0,0,1,1.141,2.536,3.693,3.693,0,0,1-.48,1.967,3.41,3.41,0,0,1-1.5,1.264l2.375,4.593V0h-2.937Zm-1.484-2.109h1.734a1.557,1.557,0,0,0,1.176-.411,1.59,1.59,0,0,0,.395-1.147,1.608,1.608,0,0,0-.4-1.155,1.542,1.542,0,0,0-1.172-.419h-1.734Zm14.422,2.273V0h-2.742V-11.375h4.539a5.287,5.287,0,0,1,2.309.48A3.621,3.621,0,0,1-9.582-9.527a3.734,3.734,0,0,1,.551,2.012,3.291,3.291,0,0,1-1.191,2.66,4.943,4.943,0,0,1-3.27,1Zm0-2.117h1.8a1.7,1.7,0,0,0,1.215-.4A1.48,1.48,0,0,0-11.812-7.5a1.83,1.83,0,0,0-.43-1.273,1.522,1.522,0,0,0-1.172-.484h-1.828Zm11.9,1.953H-4.828V0H-7.57V-11.375h4.477a5,5,0,0,1,3.164.9A3.041,3.041,0,0,1,1.211-7.941,3.693,3.693,0,0,1,.73-5.974,3.41,3.41,0,0,1-.773-4.71L1.6-.117V0H-1.336ZM-4.828-6.133h1.734a1.557,1.557,0,0,0,1.176-.411,1.59,1.59,0,0,0,.395-1.147,1.608,1.608,0,0,0-.4-1.155,1.542,1.542,0,0,0-1.172-.419H-4.828Zm17.328.68a6.708,6.708,0,0,1-.617,2.945A4.561,4.561,0,0,1,10.129-.535a4.884,4.884,0,0,1-2.59.691A4.953,4.953,0,0,1,4.961-.512a4.554,4.554,0,0,1-1.754-1.91,6.515,6.515,0,0,1-.66-2.852v-.641A6.737,6.737,0,0,1,3.16-8.863a4.55,4.55,0,0,1,1.758-1.973,4.918,4.918,0,0,1,2.605-.7,4.87,4.87,0,0,1,2.578.688,4.632,4.632,0,0,1,1.762,1.957,6.544,6.544,0,0,1,.637,2.91ZM9.711-5.93A4.783,4.783,0,0,0,9.145-8.5a1.817,1.817,0,0,0-1.621-.879q-2.062,0-2.18,3.094l-.008.836a4.92,4.92,0,0,0,.555,2.57,1.814,1.814,0,0,0,1.648.9,1.792,1.792,0,0,0,1.6-.883,4.785,4.785,0,0,0,.57-2.539Zm6.945,2.07V0H13.914V-11.375h4.539a5.287,5.287,0,0,1,2.309.48,3.621,3.621,0,0,1,1.555,1.367,3.734,3.734,0,0,1,.551,2.012,3.291,3.291,0,0,1-1.191,2.66,4.943,4.943,0,0,1-3.27,1Zm0-2.117h1.8a1.7,1.7,0,0,0,1.215-.4A1.48,1.48,0,0,0,20.086-7.5a1.83,1.83,0,0,0-.43-1.273,1.522,1.522,0,0,0-1.172-.484H16.656Zm16.594-5.4V-3.93a4.279,4.279,0,0,1-.539,2.191,3.492,3.492,0,0,1-1.547,1.41,5.449,5.449,0,0,1-2.383.484A4.708,4.708,0,0,1,25.508-.922a3.845,3.845,0,0,1-1.219-2.953v-7.5h2.758V-3.82q.047,1.867,1.734,1.867a1.679,1.679,0,0,0,1.289-.469,2.191,2.191,0,0,0,.438-1.523v-7.43Zm8.766,6.547H37.7v2.719H42.8V0H34.961V-11.375h7.852v2.117H37.7v2.4h4.313Zm7.766,1.8a1.127,1.127,0,0,0-.426-.937,5.292,5.292,0,0,0-1.5-.7,14.353,14.353,0,0,1-1.75-.7A3.314,3.314,0,0,1,43.9-8.336,2.676,2.676,0,0,1,44.449-10a3.562,3.562,0,0,1,1.559-1.125,6.065,6.065,0,0,1,2.266-.4,5.305,5.305,0,0,1,2.2.438,3.482,3.482,0,0,1,1.512,1.246A3.254,3.254,0,0,1,52.523-8H49.789a1.375,1.375,0,0,0-.426-1.078,1.66,1.66,0,0,0-1.152-.383,1.872,1.872,0,0,0-1.16.324,1,1,0,0,0-.426.824,1,1,0,0,0,.469.793,5.911,5.911,0,0,0,1.648.734,10.1,10.1,0,0,1,1.938.816,3.256,3.256,0,0,1,1.844,2.93A2.778,2.778,0,0,1,51.4-.7a5,5,0,0,1-3.086.852,6.122,6.122,0,0,1-2.5-.5A3.775,3.775,0,0,1,44.121-1.7a3.542,3.542,0,0,1-.566-1.988H46.3a1.744,1.744,0,0,0,.473,1.348,2.234,2.234,0,0,0,1.535.434A1.765,1.765,0,0,0,49.387-2.2.967.967,0,0,0,49.781-3.023ZM62.859-9.258H59.445V0H56.7V-9.258H53.352v-2.117h9.508Zm6.68,7.133H65.781L65.125,0H62.2l4.172-11.375h2.578L73.148,0H70.2Zm-3.1-2.117h2.445L67.656-8.187ZM79.844-3.023a1.127,1.127,0,0,0-.426-.937,5.292,5.292,0,0,0-1.5-.7,14.353,14.353,0,0,1-1.75-.7,3.314,3.314,0,0,1-2.211-2.984A2.676,2.676,0,0,1,74.512-10a3.562,3.562,0,0,1,1.559-1.125,6.065,6.065,0,0,1,2.266-.4,5.305,5.305,0,0,1,2.2.438,3.482,3.482,0,0,1,1.512,1.246A3.254,3.254,0,0,1,82.586-8H79.852a1.375,1.375,0,0,0-.426-1.078,1.66,1.66,0,0,0-1.152-.383,1.872,1.872,0,0,0-1.16.324,1,1,0,0,0-.426.824,1,1,0,0,0,.469.793,5.911,5.911,0,0,0,1.648.734,10.1,10.1,0,0,1,1.938.816,3.256,3.256,0,0,1,1.844,2.93A2.778,2.778,0,0,1,81.461-.7a5,5,0,0,1-3.086.852,6.122,6.122,0,0,1-2.5-.5A3.775,3.775,0,0,1,74.184-1.7a3.542,3.542,0,0,1-.566-1.988h2.75A1.745,1.745,0,0,0,76.84-2.34a2.234,2.234,0,0,0,1.535.434A1.765,1.765,0,0,0,79.449-2.2.967.967,0,0,0,79.844-3.023Z" transform="translate(236.75 454.75)" fill="#fff"/>
      <path id="Trazado_180908" data-name="Trazado 180908" d="M-80.125-4.828h-4.312v2.719h5.094V0H-87.18V-11.375h7.852v2.117h-5.109v2.4h4.313Zm6.313,1.734,2.266-8.281h3.063L-72.312,0h-3l-3.8-11.375h3.039Zm12.031.969h-3.758L-66.2,0h-2.93l4.172-11.375h2.578L-58.172,0h-2.945Zm-3.1-2.117h2.445l-1.227-3.945ZM-54.6-2.109h4.773V0h-7.516V-11.375H-54.6Zm14.664-9.266V-3.93a4.279,4.279,0,0,1-.539,2.191,3.492,3.492,0,0,1-1.547,1.41,5.449,5.449,0,0,1-2.383.484A4.708,4.708,0,0,1-47.68-.922,3.845,3.845,0,0,1-48.9-3.875v-7.5h2.758V-3.82q.047,1.867,1.734,1.867a1.679,1.679,0,0,0,1.289-.469,2.191,2.191,0,0,0,.438-1.523v-7.43Zm8,9.25H-35.7L-36.352,0h-2.93l4.172-11.375h2.578L-28.328,0h-2.945Zm-3.1-2.117h2.445L-33.82-8.187Zm11.766.219h-1.484V0H-27.5V-11.375h4.477a5,5,0,0,1,3.164.9,3.041,3.041,0,0,1,1.141,2.536,3.693,3.693,0,0,1-.48,1.967A3.41,3.41,0,0,1-20.7-4.71l2.375,4.593V0h-2.937Zm-1.484-2.109h1.734a1.557,1.557,0,0,0,1.176-.411,1.59,1.59,0,0,0,.395-1.147,1.608,1.608,0,0,0-.4-1.155,1.542,1.542,0,0,0-1.172-.419h-1.734Zm14.422,2.273V0h-2.742V-11.375h4.539a5.287,5.287,0,0,1,2.309.48A3.621,3.621,0,0,1-4.676-9.527a3.734,3.734,0,0,1,.551,2.012,3.291,3.291,0,0,1-1.191,2.66,4.943,4.943,0,0,1-3.27,1Zm0-2.117h1.8a1.7,1.7,0,0,0,1.215-.4A1.48,1.48,0,0,0-6.906-7.5a1.83,1.83,0,0,0-.43-1.273,1.522,1.522,0,0,0-1.172-.484h-1.828Zm11.9,1.953H.078V0H-2.664V-11.375H1.813a5,5,0,0,1,3.164.9A3.041,3.041,0,0,1,6.117-7.941a3.693,3.693,0,0,1-.48,1.967,3.41,3.41,0,0,1-1.5,1.264L6.508-.117V0H3.57ZM.078-6.133H1.813a1.557,1.557,0,0,0,1.176-.411,1.59,1.59,0,0,0,.395-1.147,1.608,1.608,0,0,0-.4-1.155,1.542,1.542,0,0,0-1.172-.419H.078Zm17.328.68a6.708,6.708,0,0,1-.617,2.945A4.561,4.561,0,0,1,15.035-.535a4.884,4.884,0,0,1-2.59.691A4.953,4.953,0,0,1,9.867-.512a4.554,4.554,0,0,1-1.754-1.91,6.515,6.515,0,0,1-.66-2.852v-.641a6.737,6.737,0,0,1,.613-2.949,4.55,4.55,0,0,1,1.758-1.973,4.918,4.918,0,0,1,2.605-.7,4.87,4.87,0,0,1,2.578.688A4.632,4.632,0,0,1,16.77-8.887a6.544,6.544,0,0,1,.637,2.91ZM14.617-5.93A4.783,4.783,0,0,0,14.051-8.5a1.817,1.817,0,0,0-1.621-.879q-2.062,0-2.18,3.094l-.008.836a4.92,4.92,0,0,0,.555,2.57,1.814,1.814,0,0,0,1.648.9,1.792,1.792,0,0,0,1.6-.883,4.785,4.785,0,0,0,.57-2.539Zm6.945,2.07V0H18.82V-11.375h4.539a5.287,5.287,0,0,1,2.309.48,3.621,3.621,0,0,1,1.555,1.367,3.734,3.734,0,0,1,.551,2.012,3.291,3.291,0,0,1-1.191,2.66,4.943,4.943,0,0,1-3.27,1Zm0-2.117h1.8a1.7,1.7,0,0,0,1.215-.4A1.48,1.48,0,0,0,24.992-7.5a1.83,1.83,0,0,0-.43-1.273,1.522,1.522,0,0,0-1.172-.484H21.563Zm16.594-5.4V-3.93a4.279,4.279,0,0,1-.539,2.191A3.492,3.492,0,0,1,36.07-.328a5.449,5.449,0,0,1-2.383.484A4.708,4.708,0,0,1,30.414-.922,3.845,3.845,0,0,1,29.2-3.875v-7.5h2.758V-3.82Q32-1.953,33.688-1.953a1.679,1.679,0,0,0,1.289-.469,2.191,2.191,0,0,0,.438-1.523v-7.43Zm8.766,6.547H42.609v2.719H47.7V0H39.867V-11.375h7.852v2.117H42.609v2.4h4.313Zm7.766,1.8a1.127,1.127,0,0,0-.426-.937,5.292,5.292,0,0,0-1.5-.7,14.353,14.353,0,0,1-1.75-.7A3.314,3.314,0,0,1,48.8-8.336,2.676,2.676,0,0,1,49.355-10a3.562,3.562,0,0,1,1.559-1.125,6.065,6.065,0,0,1,2.266-.4,5.305,5.305,0,0,1,2.2.438,3.482,3.482,0,0,1,1.512,1.246A3.254,3.254,0,0,1,57.43-8H54.7a1.375,1.375,0,0,0-.426-1.078,1.66,1.66,0,0,0-1.152-.383,1.872,1.872,0,0,0-1.16.324,1,1,0,0,0-.426.824A1,1,0,0,0,52-7.52a5.911,5.911,0,0,0,1.648.734,10.1,10.1,0,0,1,1.938.816,3.256,3.256,0,0,1,1.844,2.93A2.778,2.778,0,0,1,56.3-.7a5,5,0,0,1-3.086.852,6.122,6.122,0,0,1-2.5-.5A3.775,3.775,0,0,1,49.027-1.7a3.542,3.542,0,0,1-.566-1.988h2.75a1.744,1.744,0,0,0,.473,1.348,2.234,2.234,0,0,0,1.535.434A1.765,1.765,0,0,0,54.293-2.2.967.967,0,0,0,54.688-3.023ZM67.766-9.258H64.352V0H61.609V-9.258H58.258v-2.117h9.508Zm6.68,7.133H70.688L70.031,0H67.1l4.172-11.375h2.578L78.055,0H75.109Zm-3.1-2.117h2.445L72.563-8.187ZM84.75-3.023a1.127,1.127,0,0,0-.426-.937,5.292,5.292,0,0,0-1.5-.7,14.353,14.353,0,0,1-1.75-.7,3.314,3.314,0,0,1-2.211-2.984A2.676,2.676,0,0,1,79.418-10a3.562,3.562,0,0,1,1.559-1.125,6.065,6.065,0,0,1,2.266-.4,5.305,5.305,0,0,1,2.2.438,3.482,3.482,0,0,1,1.512,1.246A3.254,3.254,0,0,1,87.492-8H84.758a1.375,1.375,0,0,0-.426-1.078,1.66,1.66,0,0,0-1.152-.383,1.872,1.872,0,0,0-1.16.324,1,1,0,0,0-.426.824,1,1,0,0,0,.469.793,5.911,5.911,0,0,0,1.648.734,10.1,10.1,0,0,1,1.938.816,3.256,3.256,0,0,1,1.844,2.93A2.778,2.778,0,0,1,86.367-.7a5,5,0,0,1-3.086.852,6.122,6.122,0,0,1-2.5-.5A3.775,3.775,0,0,1,79.09-1.7a3.542,3.542,0,0,1-.566-1.988h2.75a1.745,1.745,0,0,0,.473,1.348,2.234,2.234,0,0,0,1.535.434A1.765,1.765,0,0,0,84.355-2.2.967.967,0,0,0,84.75-3.023Z" transform="translate(236.75 524.75)" fill="#fff"/>
      <path id="Trazado_180909" data-name="Trazado 180909" d="M-113.27-3.852a4.154,4.154,0,0,1-.641,2.1,3.866,3.866,0,0,1-1.645,1.41,5.6,5.6,0,0,1-2.418.5A4.467,4.467,0,0,1-121.5-1.3a6.032,6.032,0,0,1-1.289-4.125v-.562a6.885,6.885,0,0,1,.582-2.926,4.41,4.41,0,0,1,1.676-1.937A4.676,4.676,0,0,1-118-11.539a4.9,4.9,0,0,1,3.328,1.09,4.306,4.306,0,0,1,1.43,3h-2.734a2.037,2.037,0,0,0-.523-1.492,2.153,2.153,0,0,0-1.5-.453,1.638,1.638,0,0,0-1.5.766A4.921,4.921,0,0,0-120-6.18v.8a5.445,5.445,0,0,0,.457,2.6,1.672,1.672,0,0,0,1.574.781,2.106,2.106,0,0,0,1.445-.445A1.89,1.89,0,0,0-116-3.852Zm10.219-7.523V-3.93a4.279,4.279,0,0,1-.539,2.191,3.492,3.492,0,0,1-1.547,1.41,5.449,5.449,0,0,1-2.383.484,4.708,4.708,0,0,1-3.273-1.078,3.845,3.845,0,0,1-1.219-2.953v-7.5h2.758V-3.82q.047,1.867,1.734,1.867a1.679,1.679,0,0,0,1.289-.469,2.191,2.191,0,0,0,.438-1.523v-7.43Zm5.313,0L-95.2-3.461l2.531-7.914h3.609V0h-2.75V-2.656l.266-5.437L-94.293,0h-1.812l-2.758-8.1.266,5.445V0h-2.742V-11.375Zm13.164,7.516V0h-2.742V-11.375h4.539a5.287,5.287,0,0,1,2.309.48,3.621,3.621,0,0,1,1.555,1.367,3.734,3.734,0,0,1,.551,2.012,3.291,3.291,0,0,1-1.191,2.66,4.943,4.943,0,0,1-3.27,1Zm0-2.117h1.8a1.7,1.7,0,0,0,1.215-.4A1.48,1.48,0,0,0-81.145-7.5a1.83,1.83,0,0,0-.43-1.273,1.522,1.522,0,0,0-1.172-.484h-1.828ZM-74.16-2.109h4.773V0H-76.9V-11.375h2.742Zm12.984-2.719h-4.312v2.719h5.094V0H-68.23V-11.375h7.852v2.117h-5.109v2.4h4.313ZM-49.777,0H-52.5l-4.031-7.078V0h-2.742V-11.375h2.742L-52.512-4.3v-7.078h2.734Zm8.461-2.109h4.773V0h-7.516V-11.375h2.742Zm15.063-3.344a6.708,6.708,0,0,1-.617,2.945A4.561,4.561,0,0,1-28.625-.535a4.884,4.884,0,0,1-2.59.691,4.953,4.953,0,0,1-2.578-.668,4.554,4.554,0,0,1-1.754-1.91,6.515,6.515,0,0,1-.66-2.852v-.641a6.737,6.737,0,0,1,.613-2.949,4.55,4.55,0,0,1,1.758-1.973,4.918,4.918,0,0,1,2.605-.7,4.87,4.87,0,0,1,2.578.688,4.632,4.632,0,0,1,1.762,1.957,6.544,6.544,0,0,1,.637,2.91Zm-2.789-.477A4.783,4.783,0,0,0-29.609-8.5a1.817,1.817,0,0,0-1.621-.879q-2.062,0-2.18,3.094l-.008.836a4.92,4.92,0,0,0,.555,2.57,1.814,1.814,0,0,0,1.648.9,1.792,1.792,0,0,0,1.6-.883,4.785,4.785,0,0,0,.57-2.539Zm10.07,2.906a1.127,1.127,0,0,0-.426-.937,5.292,5.292,0,0,0-1.5-.7,14.353,14.353,0,0,1-1.75-.7,3.314,3.314,0,0,1-2.211-2.984A2.676,2.676,0,0,1-24.3-10a3.562,3.562,0,0,1,1.559-1.125,6.065,6.065,0,0,1,2.266-.4,5.305,5.305,0,0,1,2.2.438A3.482,3.482,0,0,1-16.77-9.848,3.254,3.254,0,0,1-16.23-8h-2.734a1.375,1.375,0,0,0-.426-1.078,1.66,1.66,0,0,0-1.152-.383,1.872,1.872,0,0,0-1.16.324,1,1,0,0,0-.426.824,1,1,0,0,0,.469.793,5.911,5.911,0,0,0,1.648.734,10.1,10.1,0,0,1,1.938.816,3.256,3.256,0,0,1,1.844,2.93A2.778,2.778,0,0,1-17.355-.7a5,5,0,0,1-3.086.852,6.122,6.122,0,0,1-2.5-.5A3.775,3.775,0,0,1-24.633-1.7,3.542,3.542,0,0,1-25.2-3.687h2.75a1.744,1.744,0,0,0,.473,1.348,2.234,2.234,0,0,0,1.535.434A1.765,1.765,0,0,0-19.367-2.2.967.967,0,0,0-18.973-3.023Zm12.359-1H-8.1V0H-10.84V-11.375h4.477a5,5,0,0,1,3.164.9A3.041,3.041,0,0,1-2.059-7.941a3.693,3.693,0,0,1-.48,1.967,3.41,3.41,0,0,1-1.5,1.264L-1.668-.117V0H-4.605ZM-8.1-6.133h1.734a1.557,1.557,0,0,0,1.176-.411,1.59,1.59,0,0,0,.395-1.147,1.608,1.608,0,0,0-.4-1.155,1.542,1.542,0,0,0-1.172-.419H-8.1Zm14.75,1.3H2.34v2.719H7.434V0H-.4V-11.375H7.449v2.117H2.34v2.4H6.652ZM18.2-5.453A6.722,6.722,0,0,1,17.676-2.7,4.787,4.787,0,0,1,16.23-.812L18.066.641l-1.7,1.438L13.926.109a5.083,5.083,0,0,1-.687.047A4.93,4.93,0,0,1,10.66-.516,4.57,4.57,0,0,1,8.906-2.437a6.527,6.527,0,0,1-.652-2.875v-.6a6.731,6.731,0,0,1,.613-2.953,4.57,4.57,0,0,1,1.75-1.969,4.892,4.892,0,0,1,2.605-.7,4.87,4.87,0,0,1,2.578.688,4.632,4.632,0,0,1,1.762,1.957,6.544,6.544,0,0,1,.637,2.91ZM15.41-5.93A4.783,4.783,0,0,0,14.844-8.5a1.817,1.817,0,0,0-1.621-.879,1.8,1.8,0,0,0-1.633.867,4.845,4.845,0,0,0-.555,2.539v.523a4.916,4.916,0,0,0,.555,2.574,1.816,1.816,0,0,0,1.648.895,1.79,1.79,0,0,0,1.605-.883,4.813,4.813,0,0,0,.566-2.539ZM28.52-11.375V-3.93a4.279,4.279,0,0,1-.539,2.191,3.492,3.492,0,0,1-1.547,1.41,5.449,5.449,0,0,1-2.383.484A4.708,4.708,0,0,1,20.777-.922a3.845,3.845,0,0,1-1.219-2.953v-7.5h2.758V-3.82q.047,1.867,1.734,1.867a1.679,1.679,0,0,0,1.289-.469,2.191,2.191,0,0,0,.438-1.523v-7.43Zm8.766,6.547H32.973v2.719h5.094V0H30.23V-11.375h7.852v2.117H32.973v2.4h4.313Zm6.125.8H41.926V0H39.184V-11.375H43.66a5,5,0,0,1,3.164.9,3.041,3.041,0,0,1,1.141,2.536,3.693,3.693,0,0,1-.48,1.967,3.41,3.41,0,0,1-1.5,1.264L48.355-.117V0H45.418ZM41.926-6.133H43.66a1.557,1.557,0,0,0,1.176-.411,1.59,1.59,0,0,0,.395-1.147,1.608,1.608,0,0,0-.4-1.155,1.542,1.542,0,0,0-1.172-.419H41.926ZM52.543,0H49.809V-11.375h2.734Zm5.508-11.375L60.59-3.461l2.531-7.914H66.73V0H63.98V-2.656l.266-5.437L61.5,0H59.684L56.926-8.1l.266,5.445V0H54.449V-11.375ZM71.395,0H68.66V-11.375h2.734Zm8.961-4.828H76.043v2.719h5.094V0H73.3V-11.375h7.852v2.117H76.043v2.4h4.313ZM91.754,0H89.027L85-7.078V0H82.254V-11.375H85L89.02-4.3v-7.078h2.734Zm10.438-9.258H98.777V0H96.035V-9.258H92.684v-2.117h9.508Zm10.57,3.8a6.708,6.708,0,0,1-.617,2.945,4.561,4.561,0,0,1-1.754,1.973,4.884,4.884,0,0,1-2.59.691,4.953,4.953,0,0,1-2.578-.668,4.554,4.554,0,0,1-1.754-1.91,6.515,6.515,0,0,1-.66-2.852v-.641a6.738,6.738,0,0,1,.613-2.949,4.55,4.55,0,0,1,1.758-1.973,4.918,4.918,0,0,1,2.605-.7,4.87,4.87,0,0,1,2.578.688,4.632,4.632,0,0,1,1.762,1.957,6.544,6.544,0,0,1,.637,2.91Zm-2.789-.477a4.783,4.783,0,0,0-.566-2.574,1.817,1.817,0,0,0-1.621-.879q-2.062,0-2.18,3.094l-.008.836a4.92,4.92,0,0,0,.555,2.57,1.814,1.814,0,0,0,1.648.9,1.792,1.792,0,0,0,1.6-.883,4.785,4.785,0,0,0,.57-2.539Zm10.07,2.906a1.127,1.127,0,0,0-.426-.937,5.292,5.292,0,0,0-1.5-.7,14.353,14.353,0,0,1-1.75-.7,3.314,3.314,0,0,1-2.211-2.984A2.676,2.676,0,0,1,114.711-10a3.562,3.562,0,0,1,1.559-1.125,6.065,6.065,0,0,1,2.266-.4,5.305,5.305,0,0,1,2.2.438,3.482,3.482,0,0,1,1.512,1.246A3.254,3.254,0,0,1,122.785-8h-2.734a1.375,1.375,0,0,0-.426-1.078,1.66,1.66,0,0,0-1.152-.383,1.872,1.872,0,0,0-1.16.324,1,1,0,0,0-.426.824,1,1,0,0,0,.469.793A5.911,5.911,0,0,0,119-6.785a10.1,10.1,0,0,1,1.938.816,3.256,3.256,0,0,1,1.844,2.93A2.778,2.778,0,0,1,121.66-.7a5,5,0,0,1-3.086.852,6.122,6.122,0,0,1-2.5-.5A3.775,3.775,0,0,1,114.383-1.7a3.542,3.542,0,0,1-.566-1.988h2.75a1.745,1.745,0,0,0,.473,1.348,2.234,2.234,0,0,0,1.535.434,1.765,1.765,0,0,0,1.074-.293A.967.967,0,0,0,120.043-3.023Zm-178.8,16.586,2.094-4.937H-53.7l-3.664,7.289V20h-2.781V15.914L-63.8,8.625h2.945Zm16.922,1.609h-4.312v2.719h5.094V20h-7.836V8.625h7.852v2.117h-5.109v2.4h4.313Zm7.766,1.8a1.127,1.127,0,0,0-.426-.937,5.292,5.292,0,0,0-1.5-.7,14.353,14.353,0,0,1-1.75-.7,3.314,3.314,0,0,1-2.211-2.984A2.676,2.676,0,0,1-39.4,10a3.562,3.562,0,0,1,1.559-1.125,6.065,6.065,0,0,1,2.266-.4,5.305,5.305,0,0,1,2.2.438,3.482,3.482,0,0,1,1.512,1.246A3.254,3.254,0,0,1-31.328,12h-2.734a1.375,1.375,0,0,0-.426-1.078,1.66,1.66,0,0,0-1.152-.383,1.872,1.872,0,0,0-1.16.324,1,1,0,0,0-.426.824,1,1,0,0,0,.469.793,5.911,5.911,0,0,0,1.648.734,10.1,10.1,0,0,1,1.938.816,3.256,3.256,0,0,1,1.844,2.93A2.778,2.778,0,0,1-32.453,19.3a5,5,0,0,1-3.086.852,6.122,6.122,0,0,1-2.5-.5A3.775,3.775,0,0,1-39.73,18.3a3.542,3.542,0,0,1-.566-1.988h2.75a1.744,1.744,0,0,0,.473,1.348,2.234,2.234,0,0,0,1.535.434,1.765,1.765,0,0,0,1.074-.293A.967.967,0,0,0-34.07,16.977Zm6.891-.836V20h-2.742V8.625h4.539a5.287,5.287,0,0,1,2.309.48,3.621,3.621,0,0,1,1.555,1.367,3.734,3.734,0,0,1,.551,2.012,3.291,3.291,0,0,1-1.191,2.66,4.943,4.943,0,0,1-3.27,1Zm0-2.117h1.8a1.7,1.7,0,0,0,1.215-.4A1.48,1.48,0,0,0-23.75,12.5a1.83,1.83,0,0,0-.43-1.273,1.522,1.522,0,0,0-1.172-.484H-27.18Zm14.727,1.148h-4.312v2.719h5.094V20h-7.836V8.625h7.852v2.117h-5.109v2.4h4.313Zm11.1.977a4.154,4.154,0,0,1-.641,2.1,3.866,3.866,0,0,1-1.645,1.41,5.6,5.6,0,0,1-2.418.5A4.467,4.467,0,0,1-9.586,18.7a6.032,6.032,0,0,1-1.289-4.125v-.562a6.885,6.885,0,0,1,.582-2.926A4.41,4.41,0,0,1-8.617,9.145a4.676,4.676,0,0,1,2.531-.684,4.9,4.9,0,0,1,3.328,1.09,4.306,4.306,0,0,1,1.43,3H-4.062a2.037,2.037,0,0,0-.523-1.492,2.153,2.153,0,0,0-1.5-.453,1.638,1.638,0,0,0-1.5.766,4.921,4.921,0,0,0-.5,2.445v.8a5.445,5.445,0,0,0,.457,2.6,1.672,1.672,0,0,0,1.574.781,2.106,2.106,0,0,0,1.445-.445,1.89,1.89,0,0,0,.531-1.414Zm10-5.406H5.234V20H2.492V10.742H-.859V8.625H8.648Zm6.68,7.133H11.57L10.914,20H7.984L12.156,8.625h2.578L18.938,20H15.992Zm-3.1-2.117h2.445l-1.227-3.945Zm15.531-5.016H24.344V20H21.6V10.742H18.25V8.625h9.508ZM31.836,20H29.1V8.625h2.734Zm6.32-3.094,2.266-8.281h3.063L39.656,20h-3l-3.8-11.375H35.9Zm12.031.969H46.43L45.773,20h-2.93L47.016,8.625h2.578L53.8,20H50.852Zm-3.1-2.117h2.445L48.3,11.813Zm13.406,1.219a1.127,1.127,0,0,0-.426-.937,5.292,5.292,0,0,0-1.5-.7,14.353,14.353,0,0,1-1.75-.7,3.314,3.314,0,0,1-2.211-2.984A2.676,2.676,0,0,1,55.16,10a3.562,3.562,0,0,1,1.559-1.125,6.065,6.065,0,0,1,2.266-.4,5.305,5.305,0,0,1,2.2.438A3.482,3.482,0,0,1,62.7,10.152,3.254,3.254,0,0,1,63.234,12H60.5a1.375,1.375,0,0,0-.426-1.078,1.66,1.66,0,0,0-1.152-.383,1.872,1.872,0,0,0-1.16.324A.955.955,0,0,0,57.8,12.48a5.911,5.911,0,0,0,1.648.734,10.1,10.1,0,0,1,1.938.816,3.256,3.256,0,0,1,1.844,2.93A2.778,2.778,0,0,1,62.109,19.3a5,5,0,0,1-3.086.852,6.122,6.122,0,0,1-2.5-.5A3.775,3.775,0,0,1,54.832,18.3a3.542,3.542,0,0,1-.566-1.988h2.75a1.744,1.744,0,0,0,.473,1.348,2.234,2.234,0,0,0,1.535.434A1.765,1.765,0,0,0,60.1,17.8.967.967,0,0,0,60.492,16.977Z" transform="translate(236.75 584.75)" fill="#fff"/>
      <path id="Trazado_180912" data-name="Trazado 180912" d="M-63.715-4.023H-65.2V0h-2.742V-11.375h4.477a5,5,0,0,1,3.164.9A3.041,3.041,0,0,1-59.16-7.941a3.693,3.693,0,0,1-.48,1.967,3.41,3.41,0,0,1-1.5,1.264L-58.77-.117V0h-2.937ZM-65.2-6.133h1.734a1.557,1.557,0,0,0,1.176-.411,1.59,1.59,0,0,0,.395-1.147,1.608,1.608,0,0,0-.4-1.155,1.542,1.542,0,0,0-1.172-.419H-65.2Zm14.75,1.3h-4.312v2.719h5.094V0H-57.5V-11.375h7.852v2.117h-5.109v2.4h4.313Zm11.211,3.422A4.409,4.409,0,0,1-41.09-.273a7.986,7.986,0,0,1-2.672.43,4.764,4.764,0,0,1-3.57-1.367,5.534,5.534,0,0,1-1.43-3.8L-48.77-6a6.788,6.788,0,0,1,.594-2.934,4.409,4.409,0,0,1,1.7-1.93,4.807,4.807,0,0,1,2.559-.676,5.039,5.039,0,0,1,3.3.973,4.121,4.121,0,0,1,1.371,2.9h-2.641A2.157,2.157,0,0,0-42.5-9.023a1.966,1.966,0,0,0-1.328-.406,1.789,1.789,0,0,0-1.594.875,4.672,4.672,0,0,0-.57,2.5v.688a4.574,4.574,0,0,0,.582,2.559,2.059,2.059,0,0,0,1.832.855A2.3,2.3,0,0,0-41.98-2.43V-4.2h-1.906V-6.078h4.648ZM-34.723,0h-2.734V-11.375h2.734Zm7.773-3.023a1.127,1.127,0,0,0-.426-.937,5.292,5.292,0,0,0-1.5-.7,14.353,14.353,0,0,1-1.75-.7,3.314,3.314,0,0,1-2.211-2.984A2.676,2.676,0,0,1-32.281-10a3.562,3.562,0,0,1,1.559-1.125,6.065,6.065,0,0,1,2.266-.4,5.305,5.305,0,0,1,2.2.438,3.482,3.482,0,0,1,1.512,1.246A3.254,3.254,0,0,1-24.207-8h-2.734a1.375,1.375,0,0,0-.426-1.078,1.66,1.66,0,0,0-1.152-.383,1.872,1.872,0,0,0-1.16.324,1,1,0,0,0-.426.824,1,1,0,0,0,.469.793,5.911,5.911,0,0,0,1.648.734,10.1,10.1,0,0,1,1.938.816,3.256,3.256,0,0,1,1.844,2.93A2.778,2.778,0,0,1-25.332-.7a5,5,0,0,1-3.086.852,6.122,6.122,0,0,1-2.5-.5A3.775,3.775,0,0,1-32.609-1.7a3.542,3.542,0,0,1-.566-1.988h2.75a1.744,1.744,0,0,0,.473,1.348,2.234,2.234,0,0,0,1.535.434A1.765,1.765,0,0,0-27.344-2.2.967.967,0,0,0-26.949-3.023Zm13.078-6.234h-3.414V0h-2.742V-9.258h-3.352v-2.117h9.508Zm5.383,5.234H-9.973V0h-2.742V-11.375h4.477a5,5,0,0,1,3.164.9A3.041,3.041,0,0,1-3.934-7.941a3.693,3.693,0,0,1-.48,1.967,3.41,3.41,0,0,1-1.5,1.264L-3.543-.117V0H-6.48ZM-9.973-6.133h1.734a1.557,1.557,0,0,0,1.176-.411,1.59,1.59,0,0,0,.395-1.147,1.608,1.608,0,0,0-.4-1.155,1.542,1.542,0,0,0-1.172-.419H-9.973ZM4.184-2.125H.426L-.23,0H-3.16L1.012-11.375H3.59L7.793,0H4.848Zm-3.1-2.117H3.527L2.3-8.187Zm11.766.219H11.363V0H8.621V-11.375H13.1a5,5,0,0,1,3.164.9A3.041,3.041,0,0,1,17.4-7.941a3.693,3.693,0,0,1-.48,1.967,3.41,3.41,0,0,1-1.5,1.264L17.793-.117V0H14.855ZM11.363-6.133H13.1a1.557,1.557,0,0,0,1.176-.411,1.59,1.59,0,0,0,.395-1.147,1.608,1.608,0,0,0-.4-1.155A1.542,1.542,0,0,0,13.1-9.266H11.363ZM32.246-3.852a4.154,4.154,0,0,1-.641,2.1,3.866,3.866,0,0,1-1.645,1.41,5.6,5.6,0,0,1-2.418.5A4.467,4.467,0,0,1,24.012-1.3,6.032,6.032,0,0,1,22.723-5.43v-.562A6.885,6.885,0,0,1,23.3-8.918a4.41,4.41,0,0,1,1.676-1.937,4.676,4.676,0,0,1,2.531-.684,4.9,4.9,0,0,1,3.328,1.09,4.306,4.306,0,0,1,1.43,3H29.535a2.037,2.037,0,0,0-.523-1.492,2.153,2.153,0,0,0-1.5-.453,1.638,1.638,0,0,0-1.5.766,4.921,4.921,0,0,0-.5,2.445v.8a5.445,5.445,0,0,0,.457,2.6,1.672,1.672,0,0,0,1.574.781,2.106,2.106,0,0,0,1.445-.445,1.89,1.89,0,0,0,.531-1.414Zm10.93-1.6a6.708,6.708,0,0,1-.617,2.945A4.561,4.561,0,0,1,40.8-.535a4.884,4.884,0,0,1-2.59.691,4.953,4.953,0,0,1-2.578-.668,4.554,4.554,0,0,1-1.754-1.91,6.515,6.515,0,0,1-.66-2.852v-.641a6.737,6.737,0,0,1,.613-2.949,4.55,4.55,0,0,1,1.758-1.973,4.918,4.918,0,0,1,2.605-.7,4.87,4.87,0,0,1,2.578.688,4.632,4.632,0,0,1,1.762,1.957,6.544,6.544,0,0,1,.637,2.91ZM40.387-5.93A4.783,4.783,0,0,0,39.82-8.5,1.817,1.817,0,0,0,38.2-9.383q-2.062,0-2.18,3.094l-.008.836a4.92,4.92,0,0,0,.555,2.57,1.814,1.814,0,0,0,1.648.9,1.792,1.792,0,0,0,1.6-.883,4.785,4.785,0,0,0,.57-2.539Zm7.8-5.445L50.73-3.461l2.531-7.914h3.609V0h-2.75V-2.656l.266-5.437L51.637,0H49.824L47.066-8.1l.266,5.445V0H44.59V-11.375ZM68.246-5.453a6.708,6.708,0,0,1-.617,2.945A4.561,4.561,0,0,1,65.875-.535a4.884,4.884,0,0,1-2.59.691,4.953,4.953,0,0,1-2.578-.668,4.554,4.554,0,0,1-1.754-1.91,6.515,6.515,0,0,1-.66-2.852v-.641a6.737,6.737,0,0,1,.613-2.949,4.55,4.55,0,0,1,1.758-1.973,4.918,4.918,0,0,1,2.605-.7,4.87,4.87,0,0,1,2.578.688,4.632,4.632,0,0,1,1.762,1.957,6.544,6.544,0,0,1,.637,2.91ZM65.457-5.93A4.783,4.783,0,0,0,64.891-8.5a1.817,1.817,0,0,0-1.621-.879q-2.062,0-2.18,3.094l-.008.836a4.92,4.92,0,0,0,.555,2.57,1.814,1.814,0,0,0,1.648.9,1.792,1.792,0,0,0,1.6-.883,4.785,4.785,0,0,0,.57-2.539ZM-76.531,16.141V20h-2.742V8.625h4.539a5.287,5.287,0,0,1,2.309.48,3.621,3.621,0,0,1,1.555,1.367,3.734,3.734,0,0,1,.551,2.012,3.291,3.291,0,0,1-1.191,2.66,4.943,4.943,0,0,1-3.27,1Zm0-2.117h1.8a1.7,1.7,0,0,0,1.215-.4A1.48,1.48,0,0,0-73.1,12.5a1.83,1.83,0,0,0-.43-1.273,1.522,1.522,0,0,0-1.172-.484h-1.828Zm17.3.523a6.708,6.708,0,0,1-.617,2.945A4.561,4.561,0,0,1-61.6,19.465a4.884,4.884,0,0,1-2.59.691,4.953,4.953,0,0,1-2.578-.668,4.554,4.554,0,0,1-1.754-1.91,6.515,6.515,0,0,1-.66-2.852v-.641a6.738,6.738,0,0,1,.613-2.949,4.55,4.55,0,0,1,1.758-1.973,4.918,4.918,0,0,1,2.605-.7,4.87,4.87,0,0,1,2.578.688,4.632,4.632,0,0,1,1.762,1.957,6.544,6.544,0,0,1,.637,2.91Zm-2.789-.477a4.783,4.783,0,0,0-.566-2.574,1.817,1.817,0,0,0-1.621-.879q-2.062,0-2.18,3.094l-.008.836a4.92,4.92,0,0,0,.555,2.57,1.814,1.814,0,0,0,1.648.9,1.792,1.792,0,0,0,1.6-.883,4.785,4.785,0,0,0,.57-2.539Zm10.07,2.906a1.127,1.127,0,0,0-.426-.937,5.292,5.292,0,0,0-1.5-.7,14.353,14.353,0,0,1-1.75-.7,3.314,3.314,0,0,1-2.211-2.984A2.676,2.676,0,0,1-57.277,10a3.562,3.562,0,0,1,1.559-1.125,6.065,6.065,0,0,1,2.266-.4,5.305,5.305,0,0,1,2.2.438,3.482,3.482,0,0,1,1.512,1.246A3.254,3.254,0,0,1-49.2,12h-2.734a1.375,1.375,0,0,0-.426-1.078,1.66,1.66,0,0,0-1.152-.383,1.872,1.872,0,0,0-1.16.324,1,1,0,0,0-.426.824,1,1,0,0,0,.469.793,5.911,5.911,0,0,0,1.648.734,10.1,10.1,0,0,1,1.938.816,3.256,3.256,0,0,1,1.844,2.93A2.778,2.778,0,0,1-50.328,19.3a5,5,0,0,1-3.086.852,6.122,6.122,0,0,1-2.5-.5A3.775,3.775,0,0,1-57.605,18.3a3.542,3.542,0,0,1-.566-1.988h2.75a1.744,1.744,0,0,0,.473,1.348,2.234,2.234,0,0,0,1.535.434A1.765,1.765,0,0,0-52.34,17.8.967.967,0,0,0-51.945,16.977ZM-44.875,20h-2.734V8.625h2.734Zm1.906,0V8.625h4.086a5.786,5.786,0,0,1,3.34.8A2.677,2.677,0,0,1-34.4,11.766a2.707,2.707,0,0,1-.406,1.508A2.367,2.367,0,0,1-36,14.2a2.4,2.4,0,0,1,1.367.875,2.544,2.544,0,0,1,.477,1.563,3.012,3.012,0,0,1-1.059,2.512A5.038,5.038,0,0,1-38.352,20Zm2.742-4.836v2.727h1.8a1.709,1.709,0,0,0,1.141-.34,1.189,1.189,0,0,0,.4-.957,1.261,1.261,0,0,0-1.414-1.43Zm0-1.8h1.43a2.031,2.031,0,0,0,1.281-.329,1.168,1.168,0,0,0,.383-.948,1.226,1.226,0,0,0-.414-1.038,2.216,2.216,0,0,0-1.336-.317h-1.344Zm10.32,4.523h4.773V20h-7.516V8.625h2.742Zm12.984-2.719h-4.312v2.719h5.094V20h-7.836V8.625h7.852v2.117h-5.109v2.4h4.313Zm8.625.969V20h-2.742V8.625H-6.5a5.287,5.287,0,0,1,2.309.48,3.621,3.621,0,0,1,1.555,1.367,3.734,3.734,0,0,1,.551,2.012,3.291,3.291,0,0,1-1.191,2.66,4.943,4.943,0,0,1-3.27,1Zm0-2.117h1.8a1.7,1.7,0,0,0,1.215-.4A1.48,1.48,0,0,0-4.867,12.5a1.83,1.83,0,0,0-.43-1.273,1.522,1.522,0,0,0-1.172-.484H-8.3ZM3.6,15.977H2.117V20H-.625V8.625H3.852a5,5,0,0,1,3.164.9,3.041,3.041,0,0,1,1.141,2.536,3.693,3.693,0,0,1-.48,1.967,3.41,3.41,0,0,1-1.5,1.264l2.375,4.593V20H5.609ZM2.117,13.867H3.852a1.557,1.557,0,0,0,1.176-.411,1.59,1.59,0,0,0,.395-1.147,1.608,1.608,0,0,0-.4-1.155,1.542,1.542,0,0,0-1.172-.419H2.117Zm17.328.68a6.708,6.708,0,0,1-.617,2.945,4.561,4.561,0,0,1-1.754,1.973,4.884,4.884,0,0,1-2.59.691,4.953,4.953,0,0,1-2.578-.668,4.554,4.554,0,0,1-1.754-1.91,6.515,6.515,0,0,1-.66-2.852v-.641a6.737,6.737,0,0,1,.613-2.949,4.55,4.55,0,0,1,1.758-1.973,4.918,4.918,0,0,1,2.605-.7,4.87,4.87,0,0,1,2.578.688,4.632,4.632,0,0,1,1.762,1.957,6.544,6.544,0,0,1,.637,2.91Zm-2.789-.477A4.783,4.783,0,0,0,16.09,11.5a1.817,1.817,0,0,0-1.621-.879q-2.062,0-2.18,3.094l-.008.836a4.92,4.92,0,0,0,.555,2.57,1.814,1.814,0,0,0,1.648.9,1.792,1.792,0,0,0,1.6-.883,4.785,4.785,0,0,0,.57-2.539ZM25.1,16.906l2.266-8.281H30.43L26.6,20h-3L19.8,8.625h3.039Zm13.211-1.734H34v2.719h5.094V20H31.258V8.625h7.852v2.117H34v2.4h4.313Zm8.953,0H42.953v2.719h5.094V20H40.211V8.625h7.852v2.117H42.953v2.4h4.313ZM49.164,20V8.625h3.664a5.39,5.39,0,0,1,2.711.684,4.805,4.805,0,0,1,1.879,1.93,5.826,5.826,0,0,1,.684,2.793v.523a5.86,5.86,0,0,1-.66,2.8,4.826,4.826,0,0,1-1.859,1.938A5.271,5.271,0,0,1,52.906,20Zm2.742-9.258v7.148h.953a2.133,2.133,0,0,0,1.813-.84,4.116,4.116,0,0,0,.633-2.5v-.492a4.082,4.082,0,0,0-.633-2.484,2.17,2.17,0,0,0-1.844-.836Zm17.234,3.8a6.708,6.708,0,0,1-.617,2.945,4.561,4.561,0,0,1-1.754,1.973,4.884,4.884,0,0,1-2.59.691,4.953,4.953,0,0,1-2.578-.668,4.554,4.554,0,0,1-1.754-1.91,6.515,6.515,0,0,1-.66-2.852v-.641a6.737,6.737,0,0,1,.613-2.949,4.55,4.55,0,0,1,1.758-1.973,5.2,5.2,0,0,1,5.184-.008A4.632,4.632,0,0,1,68.5,11.113a6.544,6.544,0,0,1,.637,2.91Zm-2.789-.477a4.783,4.783,0,0,0-.566-2.574,1.817,1.817,0,0,0-1.621-.879q-2.062,0-2.18,3.094l-.008.836a4.92,4.92,0,0,0,.555,2.57,1.814,1.814,0,0,0,1.648.9,1.792,1.792,0,0,0,1.6-.883,4.785,4.785,0,0,0,.57-2.539Zm8.43,1.906H73.3V20H70.555V8.625h4.477a5,5,0,0,1,3.164.9,3.041,3.041,0,0,1,1.141,2.536,3.693,3.693,0,0,1-.48,1.967,3.41,3.41,0,0,1-1.5,1.264l2.375,4.593V20H76.789ZM73.3,13.867h1.734a1.557,1.557,0,0,0,1.176-.411,1.59,1.59,0,0,0,.395-1.147,1.608,1.608,0,0,0-.4-1.155,1.542,1.542,0,0,0-1.172-.419H73.3Z" transform="translate(175.875 727.75)" fill="#fff"/>
      <path id="Trazado_180913" data-name="Trazado 180913" d="M-94.371-3.023a1.127,1.127,0,0,0-.426-.937,5.292,5.292,0,0,0-1.5-.7,14.353,14.353,0,0,1-1.75-.7,3.314,3.314,0,0,1-2.211-2.984A2.676,2.676,0,0,1-99.7-10a3.562,3.562,0,0,1,1.559-1.125,6.065,6.065,0,0,1,2.266-.4,5.305,5.305,0,0,1,2.2.438,3.482,3.482,0,0,1,1.512,1.246A3.254,3.254,0,0,1-91.629-8h-2.734a1.375,1.375,0,0,0-.426-1.078,1.66,1.66,0,0,0-1.152-.383,1.872,1.872,0,0,0-1.16.324,1,1,0,0,0-.426.824,1,1,0,0,0,.469.793,5.911,5.911,0,0,0,1.648.734,10.1,10.1,0,0,1,1.938.816,3.256,3.256,0,0,1,1.844,2.93A2.778,2.778,0,0,1-92.754-.7,5,5,0,0,1-95.84.156a6.122,6.122,0,0,1-2.5-.5A3.775,3.775,0,0,1-100.031-1.7a3.542,3.542,0,0,1-.566-1.988h2.75a1.745,1.745,0,0,0,.473,1.348,2.234,2.234,0,0,0,1.535.434A1.765,1.765,0,0,0-94.766-2.2.967.967,0,0,0-94.371-3.023Zm11.2-1.8H-87.48v2.719h5.094V0h-7.836V-11.375h7.852v2.117H-87.48v2.4h4.313Zm4.641,2.719h4.773V0H-81.27V-11.375h2.742Zm12.984-2.719h-4.312v2.719h5.094V0H-72.6V-11.375h7.852v2.117h-5.109v2.4h4.313Zm11.1.977a4.154,4.154,0,0,1-.641,2.1,3.866,3.866,0,0,1-1.645,1.41,5.6,5.6,0,0,1-2.418.5A4.467,4.467,0,0,1-62.676-1.3,6.032,6.032,0,0,1-63.965-5.43v-.562a6.885,6.885,0,0,1,.582-2.926,4.41,4.41,0,0,1,1.676-1.937,4.676,4.676,0,0,1,2.531-.684,4.9,4.9,0,0,1,3.328,1.09,4.306,4.306,0,0,1,1.43,3h-2.734a2.037,2.037,0,0,0-.523-1.492,2.153,2.153,0,0,0-1.5-.453,1.638,1.638,0,0,0-1.5.766,4.921,4.921,0,0,0-.5,2.445v.8a5.445,5.445,0,0,0,.457,2.6,1.672,1.672,0,0,0,1.574.781A2.106,2.106,0,0,0-57.7-2.437a1.89,1.89,0,0,0,.531-1.414Zm10.5,0a4.154,4.154,0,0,1-.641,2.1,3.866,3.866,0,0,1-1.645,1.41,5.6,5.6,0,0,1-2.418.5A4.467,4.467,0,0,1-52.176-1.3,6.032,6.032,0,0,1-53.465-5.43v-.562a6.885,6.885,0,0,1,.582-2.926,4.41,4.41,0,0,1,1.676-1.937,4.676,4.676,0,0,1,2.531-.684,4.9,4.9,0,0,1,3.328,1.09,4.306,4.306,0,0,1,1.43,3h-2.734a2.037,2.037,0,0,0-.523-1.492,2.153,2.153,0,0,0-1.5-.453,1.638,1.638,0,0,0-1.5.766,4.921,4.921,0,0,0-.5,2.445v.8a5.445,5.445,0,0,0,.457,2.6,1.672,1.672,0,0,0,1.574.781A2.106,2.106,0,0,0-47.2-2.437a1.89,1.89,0,0,0,.531-1.414ZM-39.723,0h-2.734V-11.375h2.734Zm11.539-5.453A6.708,6.708,0,0,1-28.8-2.508,4.561,4.561,0,0,1-30.555-.535a4.884,4.884,0,0,1-2.59.691,4.953,4.953,0,0,1-2.578-.668,4.554,4.554,0,0,1-1.754-1.91,6.515,6.515,0,0,1-.66-2.852v-.641a6.737,6.737,0,0,1,.613-2.949,4.55,4.55,0,0,1,1.758-1.973,4.918,4.918,0,0,1,2.605-.7,4.87,4.87,0,0,1,2.578.688A4.632,4.632,0,0,1-28.82-8.887a6.544,6.544,0,0,1,.637,2.91Zm-2.789-.477A4.783,4.783,0,0,0-31.539-8.5a1.817,1.817,0,0,0-1.621-.879q-2.062,0-2.18,3.094l-.008.836a4.92,4.92,0,0,0,.555,2.57,1.814,1.814,0,0,0,1.648.9,1.792,1.792,0,0,0,1.6-.883,4.785,4.785,0,0,0,.57-2.539ZM-17.27,0H-20l-4.031-7.078V0H-26.77V-11.375h2.742L-20-4.3v-7.078h2.734Zm8.336-2.125h-3.758L-13.348,0h-2.93l4.172-11.375h2.578L-5.324,0H-8.27Zm-3.1-2.117H-9.59l-1.227-3.945ZM-.27-4.023H-1.754V0H-4.5V-11.375H-.02a5,5,0,0,1,3.164.9A3.041,3.041,0,0,1,4.285-7.941,3.693,3.693,0,0,1,3.8-5.974,3.41,3.41,0,0,1,2.3-4.71L4.676-.117V0H1.738ZM-1.754-6.133H-.02a1.557,1.557,0,0,0,1.176-.411,1.59,1.59,0,0,0,.395-1.147,1.608,1.608,0,0,0-.4-1.155A1.542,1.542,0,0,0-.02-9.266H-1.754ZM12.668-3.859V0H9.926V-11.375h4.539a5.287,5.287,0,0,1,2.309.48,3.621,3.621,0,0,1,1.555,1.367,3.734,3.734,0,0,1,.551,2.012,3.291,3.291,0,0,1-1.191,2.66,4.943,4.943,0,0,1-3.27,1Zm0-2.117h1.8a1.7,1.7,0,0,0,1.215-.4A1.48,1.48,0,0,0,16.1-7.5a1.83,1.83,0,0,0-.43-1.273A1.522,1.522,0,0,0,14.5-9.258H12.668Zm11.9,1.953H23.082V0H20.34V-11.375h4.477a5,5,0,0,1,3.164.9,3.041,3.041,0,0,1,1.141,2.536,3.693,3.693,0,0,1-.48,1.967,3.41,3.41,0,0,1-1.5,1.264L29.512-.117V0H26.574ZM23.082-6.133h1.734a1.557,1.557,0,0,0,1.176-.411,1.59,1.59,0,0,0,.395-1.147,1.608,1.608,0,0,0-.4-1.155,1.542,1.542,0,0,0-1.172-.419H23.082Zm17.328.68a6.708,6.708,0,0,1-.617,2.945A4.561,4.561,0,0,1,38.039-.535a4.884,4.884,0,0,1-2.59.691,4.953,4.953,0,0,1-2.578-.668,4.554,4.554,0,0,1-1.754-1.91,6.515,6.515,0,0,1-.66-2.852v-.641a6.737,6.737,0,0,1,.613-2.949,4.55,4.55,0,0,1,1.758-1.973,4.918,4.918,0,0,1,2.605-.7,4.87,4.87,0,0,1,2.578.688,4.632,4.632,0,0,1,1.762,1.957,6.544,6.544,0,0,1,.637,2.91ZM37.621-5.93A4.783,4.783,0,0,0,37.055-8.5a1.817,1.817,0,0,0-1.621-.879q-2.062,0-2.18,3.094l-.008.836a4.92,4.92,0,0,0,.555,2.57,1.814,1.814,0,0,0,1.648.9,1.792,1.792,0,0,0,1.6-.883,4.785,4.785,0,0,0,.57-2.539Zm8.445,2.836,2.266-8.281h3.063L47.566,0h-3l-3.8-11.375h3.039ZM59.277-4.828H54.965v2.719h5.094V0H52.223V-11.375h7.852v2.117H54.965v2.4h4.313Zm8.953,0H63.918v2.719h5.094V0H61.176V-11.375h7.852v2.117H63.918v2.4H68.23ZM70.129,0V-11.375h3.664a5.39,5.39,0,0,1,2.711.684,4.805,4.805,0,0,1,1.879,1.93,5.826,5.826,0,0,1,.684,2.793v.523a5.86,5.86,0,0,1-.66,2.8A4.826,4.826,0,0,1,76.547-.707,5.271,5.271,0,0,1,73.871,0Zm2.742-9.258v7.148h.953a2.133,2.133,0,0,0,1.813-.84,4.116,4.116,0,0,0,.633-2.5v-.492a4.082,4.082,0,0,0-.633-2.484,2.17,2.17,0,0,0-1.844-.836Zm17.234,3.8a6.708,6.708,0,0,1-.617,2.945A4.561,4.561,0,0,1,87.734-.535a4.884,4.884,0,0,1-2.59.691,4.953,4.953,0,0,1-2.578-.668,4.554,4.554,0,0,1-1.754-1.91,6.515,6.515,0,0,1-.66-2.852v-.641a6.738,6.738,0,0,1,.613-2.949,4.55,4.55,0,0,1,1.758-1.973,4.918,4.918,0,0,1,2.605-.7,4.87,4.87,0,0,1,2.578.688,4.632,4.632,0,0,1,1.762,1.957,6.544,6.544,0,0,1,.637,2.91ZM87.316-5.93A4.783,4.783,0,0,0,86.75-8.5a1.817,1.817,0,0,0-1.621-.879q-2.062,0-2.18,3.094l-.008.836a4.92,4.92,0,0,0,.555,2.57,1.814,1.814,0,0,0,1.648.9,1.792,1.792,0,0,0,1.6-.883,4.785,4.785,0,0,0,.57-2.539Zm8.43,1.906H94.262V0H91.52V-11.375H96a5,5,0,0,1,3.164.9A3.041,3.041,0,0,1,100.3-7.941a3.693,3.693,0,0,1-.48,1.967,3.41,3.41,0,0,1-1.5,1.264l2.375,4.593V0H97.754ZM94.262-6.133H96a1.557,1.557,0,0,0,1.176-.411,1.59,1.59,0,0,0,.395-1.147,1.608,1.608,0,0,0-.4-1.155A1.542,1.542,0,0,0,96-9.266H94.262ZM-120.43,16.977a1.127,1.127,0,0,0-.426-.937,5.292,5.292,0,0,0-1.5-.7,14.353,14.353,0,0,1-1.75-.7,3.314,3.314,0,0,1-2.211-2.984A2.676,2.676,0,0,1-125.762,10,3.562,3.562,0,0,1-124.2,8.871a6.065,6.065,0,0,1,2.266-.4,5.305,5.305,0,0,1,2.2.438,3.482,3.482,0,0,1,1.512,1.246A3.254,3.254,0,0,1-117.687,12h-2.734a1.375,1.375,0,0,0-.426-1.078A1.66,1.66,0,0,0-122,10.539a1.872,1.872,0,0,0-1.16.324,1,1,0,0,0-.426.824,1,1,0,0,0,.469.793,5.911,5.911,0,0,0,1.648.734,10.1,10.1,0,0,1,1.938.816,3.256,3.256,0,0,1,1.844,2.93,2.778,2.778,0,0,1-1.125,2.344,5,5,0,0,1-3.086.852,6.122,6.122,0,0,1-2.5-.5A3.775,3.775,0,0,1-126.09,18.3a3.542,3.542,0,0,1-.566-1.988h2.75a1.745,1.745,0,0,0,.473,1.348,2.234,2.234,0,0,0,1.535.434,1.765,1.765,0,0,0,1.074-.293A.967.967,0,0,0-120.43,16.977Zm11.2-1.8h-4.312v2.719h5.094V20h-7.836V8.625h7.852v2.117h-5.109v2.4h4.313Zm11.211,3.422a4.409,4.409,0,0,1-1.852,1.133,7.986,7.986,0,0,1-2.672.43,4.764,4.764,0,0,1-3.57-1.367,5.534,5.534,0,0,1-1.43-3.8l-.008-.984a6.788,6.788,0,0,1,.594-2.934,4.409,4.409,0,0,1,1.7-1.93,4.807,4.807,0,0,1,2.559-.676,5.039,5.039,0,0,1,3.3.973,4.121,4.121,0,0,1,1.371,2.9h-2.641a2.157,2.157,0,0,0-.609-1.359,1.966,1.966,0,0,0-1.328-.406,1.789,1.789,0,0,0-1.594.875,4.672,4.672,0,0,0-.57,2.5v.688a4.574,4.574,0,0,0,.582,2.559,2.059,2.059,0,0,0,1.832.855,2.3,2.3,0,0,0,1.594-.477V15.8h-1.906V13.922h4.648ZM-87.5,8.625V16.07a4.279,4.279,0,0,1-.539,2.191,3.492,3.492,0,0,1-1.547,1.41,5.449,5.449,0,0,1-2.383.484,4.708,4.708,0,0,1-3.273-1.078,3.845,3.845,0,0,1-1.219-2.953v-7.5H-93.7V16.18q.047,1.867,1.734,1.867a1.679,1.679,0,0,0,1.289-.469,2.191,2.191,0,0,0,.438-1.523V8.625Zm-4.18-3.047H-88.9L-91.07,8.031l-2.148,0ZM-76.289,20h-2.727l-4.031-7.078V20h-2.742V8.625h2.742l4.023,7.078V8.625h2.734Zm14.922-3.852a4.154,4.154,0,0,1-.641,2.1,3.866,3.866,0,0,1-1.645,1.41,5.6,5.6,0,0,1-2.418.5A4.467,4.467,0,0,1-69.6,18.7a6.032,6.032,0,0,1-1.289-4.125v-.562a6.885,6.885,0,0,1,.582-2.926,4.41,4.41,0,0,1,1.676-1.937A4.676,4.676,0,0,1-66.1,8.461a4.9,4.9,0,0,1,3.328,1.09,4.306,4.306,0,0,1,1.43,3h-2.734a2.037,2.037,0,0,0-.523-1.492,2.153,2.153,0,0,0-1.5-.453,1.638,1.638,0,0,0-1.5.766,4.921,4.921,0,0,0-.5,2.445v.8a5.445,5.445,0,0,0,.457,2.6,1.672,1.672,0,0,0,1.574.781,2.106,2.106,0,0,0,1.445-.445,1.89,1.89,0,0,0,.531-1.414Zm5.523-.172h-1.484V20H-60.07V8.625h4.477a5,5,0,0,1,3.164.9,3.041,3.041,0,0,1,1.141,2.536,3.693,3.693,0,0,1-.48,1.967,3.41,3.41,0,0,1-1.5,1.264l2.375,4.593V20h-2.937Zm-1.484-2.109h1.734a1.557,1.557,0,0,0,1.176-.411,1.59,1.59,0,0,0,.395-1.147,1.608,1.608,0,0,0-.4-1.155,1.542,1.542,0,0,0-1.172-.419h-1.734ZM-46.711,20h-2.734V8.625h2.734ZM-36.1,10.742h-3.414V20h-2.742V10.742h-3.352V8.625H-36.1Zm8.211,4.43H-32.2v2.719h5.094V20h-7.836V8.625h7.852v2.117H-32.2v2.4h4.313Zm6.125.8H-23.25V20h-2.742V8.625h4.477a5,5,0,0,1,3.164.9,3.041,3.041,0,0,1,1.141,2.536,3.693,3.693,0,0,1-.48,1.967,3.41,3.41,0,0,1-1.5,1.264l2.375,4.593V20h-2.937Zm-1.484-2.109h1.734a1.557,1.557,0,0,0,1.176-.411,1.59,1.59,0,0,0,.395-1.147,1.608,1.608,0,0,0-.4-1.155,1.542,1.542,0,0,0-1.172-.419H-23.25ZM-12.633,20h-2.734V8.625h2.734Zm11.539-5.453a6.708,6.708,0,0,1-.617,2.945,4.561,4.561,0,0,1-1.754,1.973,4.884,4.884,0,0,1-2.59.691,4.953,4.953,0,0,1-2.578-.668,4.554,4.554,0,0,1-1.754-1.91,6.515,6.515,0,0,1-.66-2.852v-.641a6.737,6.737,0,0,1,.613-2.949A4.55,4.55,0,0,1-8.676,9.164a4.918,4.918,0,0,1,2.605-.7,4.87,4.87,0,0,1,2.578.688A4.632,4.632,0,0,1-1.73,11.113a6.544,6.544,0,0,1,.637,2.91Zm-2.789-.477A4.783,4.783,0,0,0-4.449,11.5a1.817,1.817,0,0,0-1.621-.879q-2.062,0-2.18,3.094l-.008.836a4.92,4.92,0,0,0,.555,2.57,1.814,1.814,0,0,0,1.648.9,1.792,1.792,0,0,0,1.6-.883,4.785,4.785,0,0,0,.57-2.539Zm10.07,2.906a1.127,1.127,0,0,0-.426-.937,5.292,5.292,0,0,0-1.5-.7,14.353,14.353,0,0,1-1.75-.7A3.314,3.314,0,0,1,.3,11.664,2.676,2.676,0,0,1,.855,10,3.562,3.562,0,0,1,2.414,8.871a6.065,6.065,0,0,1,2.266-.4,5.305,5.305,0,0,1,2.2.438,3.482,3.482,0,0,1,1.512,1.246A3.254,3.254,0,0,1,8.93,12H6.2a1.375,1.375,0,0,0-.426-1.078,1.66,1.66,0,0,0-1.152-.383,1.872,1.872,0,0,0-1.16.324A.955.955,0,0,0,3.5,12.48a5.911,5.911,0,0,0,1.648.734,10.1,10.1,0,0,1,1.938.816,3.256,3.256,0,0,1,1.844,2.93A2.778,2.778,0,0,1,7.8,19.3a5,5,0,0,1-3.086.852,6.122,6.122,0,0,1-2.5-.5A3.775,3.775,0,0,1,.527,18.3a3.542,3.542,0,0,1-.566-1.988h2.75a1.744,1.744,0,0,0,.473,1.348,2.234,2.234,0,0,0,1.535.434A1.765,1.765,0,0,0,5.793,17.8.967.967,0,0,0,6.188,16.977Zm15.188-1.8H17.063v2.719h5.094V20H14.32V8.625h7.852v2.117H17.063v2.4h4.313Zm7.766,1.8a1.127,1.127,0,0,0-.426-.937,5.292,5.292,0,0,0-1.5-.7,14.353,14.353,0,0,1-1.75-.7,3.314,3.314,0,0,1-2.211-2.984A2.676,2.676,0,0,1,23.809,10a3.562,3.562,0,0,1,1.559-1.125,6.065,6.065,0,0,1,2.266-.4,5.305,5.305,0,0,1,2.2.438,3.482,3.482,0,0,1,1.512,1.246A3.254,3.254,0,0,1,31.883,12H29.148a1.375,1.375,0,0,0-.426-1.078,1.66,1.66,0,0,0-1.152-.383,1.872,1.872,0,0,0-1.16.324.955.955,0,0,0,.043,1.617,5.911,5.911,0,0,0,1.648.734,10.1,10.1,0,0,1,1.938.816,3.256,3.256,0,0,1,1.844,2.93A2.778,2.778,0,0,1,30.758,19.3a5,5,0,0,1-3.086.852,6.122,6.122,0,0,1-2.5-.5A3.775,3.775,0,0,1,23.48,18.3a3.542,3.542,0,0,1-.566-1.988h2.75a1.744,1.744,0,0,0,.473,1.348,2.234,2.234,0,0,0,1.535.434,1.765,1.765,0,0,0,1.074-.293A.967.967,0,0,0,29.141,16.977Zm13.078-6.234H38.8V20H36.063V10.742H32.711V8.625h9.508Zm6.68,7.133H45.141L44.484,20h-2.93L45.727,8.625H48.3L52.508,20H49.563Zm-3.1-2.117h2.445l-1.227-3.945ZM53.336,20V8.625h4.086a5.786,5.786,0,0,1,3.34.8,2.677,2.677,0,0,1,1.145,2.336,2.707,2.707,0,0,1-.406,1.508,2.367,2.367,0,0,1-1.2.922,2.4,2.4,0,0,1,1.367.875,2.544,2.544,0,0,1,.477,1.563,3.012,3.012,0,0,1-1.059,2.512A5.038,5.038,0,0,1,57.953,20Zm2.742-4.836v2.727h1.8a1.709,1.709,0,0,0,1.141-.34,1.189,1.189,0,0,0,.4-.957A1.261,1.261,0,0,0,58,15.164Zm0-1.8h1.43a2.031,2.031,0,0,0,1.281-.329,1.168,1.168,0,0,0,.383-.948,1.226,1.226,0,0,0-.414-1.038,2.216,2.216,0,0,0-1.336-.317H56.078ZM66.4,17.891h4.773V20H63.656V8.625H66.4Zm12.984-2.719H75.07v2.719h5.094V20H72.328V8.625H80.18v2.117H75.07v2.4h4.313Zm11.1.977a4.154,4.154,0,0,1-.641,2.1,3.866,3.866,0,0,1-1.645,1.41,5.6,5.6,0,0,1-2.418.5A4.467,4.467,0,0,1,82.25,18.7a6.032,6.032,0,0,1-1.289-4.125v-.562a6.885,6.885,0,0,1,.582-2.926,4.41,4.41,0,0,1,1.676-1.937,4.676,4.676,0,0,1,2.531-.684,4.9,4.9,0,0,1,3.328,1.09,4.306,4.306,0,0,1,1.43,3H87.773a2.037,2.037,0,0,0-.523-1.492,2.153,2.153,0,0,0-1.5-.453,1.638,1.638,0,0,0-1.5.766,4.921,4.921,0,0,0-.5,2.445v.8a5.445,5.445,0,0,0,.457,2.6,1.672,1.672,0,0,0,1.574.781,2.106,2.106,0,0,0,1.445-.445,1.89,1.89,0,0,0,.531-1.414ZM94.7,20H91.969V8.625H94.7Zm1.906,0V8.625h3.664a5.39,5.39,0,0,1,2.711.684,4.805,4.805,0,0,1,1.879,1.93,5.826,5.826,0,0,1,.684,2.793v.523a5.86,5.86,0,0,1-.66,2.8,4.826,4.826,0,0,1-1.859,1.938,5.271,5.271,0,0,1-2.676.707Zm2.742-9.258v7.148h.953a2.133,2.133,0,0,0,1.813-.84,4.116,4.116,0,0,0,.633-2.5v-.492a4.082,4.082,0,0,0-.633-2.484,2.17,2.17,0,0,0-1.844-.836Zm17.234,3.8a6.708,6.708,0,0,1-.617,2.945,4.561,4.561,0,0,1-1.754,1.973,4.884,4.884,0,0,1-2.59.691,4.953,4.953,0,0,1-2.578-.668,4.554,4.554,0,0,1-1.754-1.91,6.515,6.515,0,0,1-.66-2.852v-.641a6.738,6.738,0,0,1,.613-2.949A4.55,4.55,0,0,1,109,9.164a5.2,5.2,0,0,1,5.184-.008,4.632,4.632,0,0,1,1.762,1.957,6.544,6.544,0,0,1,.637,2.91ZM113.8,14.07a4.783,4.783,0,0,0-.566-2.574,1.817,1.817,0,0,0-1.621-.879q-2.062,0-2.18,3.094l-.008.836a4.92,4.92,0,0,0,.555,2.57,1.814,1.814,0,0,0,1.648.9,1.792,1.792,0,0,0,1.6-.883,4.785,4.785,0,0,0,.57-2.539Zm10.07,2.906a1.127,1.127,0,0,0-.426-.937,5.292,5.292,0,0,0-1.5-.7,14.353,14.353,0,0,1-1.75-.7,3.314,3.314,0,0,1-2.211-2.984A2.676,2.676,0,0,1,118.535,10a3.562,3.562,0,0,1,1.559-1.125,6.065,6.065,0,0,1,2.266-.4,5.305,5.305,0,0,1,2.2.438,3.482,3.482,0,0,1,1.512,1.246A3.254,3.254,0,0,1,126.609,12h-2.734a1.375,1.375,0,0,0-.426-1.078,1.66,1.66,0,0,0-1.152-.383,1.872,1.872,0,0,0-1.16.324.955.955,0,0,0,.043,1.617,5.911,5.911,0,0,0,1.648.734,10.1,10.1,0,0,1,1.938.816,3.256,3.256,0,0,1,1.844,2.93,2.778,2.778,0,0,1-1.125,2.344,5,5,0,0,1-3.086.852,6.122,6.122,0,0,1-2.5-.5,3.775,3.775,0,0,1-1.687-1.359,3.542,3.542,0,0,1-.566-1.988h2.75a1.745,1.745,0,0,0,.473,1.348,2.234,2.234,0,0,0,1.535.434,1.765,1.765,0,0,0,1.074-.293A.967.967,0,0,0,123.867,16.977Z" transform="translate(445.75 727.75)" fill="#fff"/>
      <path id="Trazado_180914" data-name="Trazado 180914" d="M-15.551-3.852a4.154,4.154,0,0,1-.641,2.1,3.866,3.866,0,0,1-1.645,1.41,5.6,5.6,0,0,1-2.418.5A4.467,4.467,0,0,1-23.785-1.3,6.032,6.032,0,0,1-25.074-5.43v-.562a6.885,6.885,0,0,1,.582-2.926,4.41,4.41,0,0,1,1.676-1.937,4.676,4.676,0,0,1,2.531-.684,4.9,4.9,0,0,1,3.328,1.09,4.306,4.306,0,0,1,1.43,3h-2.734a2.037,2.037,0,0,0-.523-1.492,2.153,2.153,0,0,0-1.5-.453,1.638,1.638,0,0,0-1.5.766,4.921,4.921,0,0,0-.5,2.445v.8a5.445,5.445,0,0,0,.457,2.6,1.672,1.672,0,0,0,1.574.781,2.106,2.106,0,0,0,1.445-.445,1.89,1.89,0,0,0,.531-1.414Zm5.523-.172h-1.484V0h-2.742V-11.375h4.477a5,5,0,0,1,3.164.9A3.041,3.041,0,0,1-5.473-7.941a3.693,3.693,0,0,1-.48,1.967,3.41,3.41,0,0,1-1.5,1.264L-5.082-.117V0H-8.02Zm-1.484-2.109h1.734A1.557,1.557,0,0,0-8.6-6.544a1.59,1.59,0,0,0,.395-1.147,1.608,1.608,0,0,0-.4-1.155,1.542,1.542,0,0,0-1.172-.419h-1.734Zm14.75,1.3H-1.074v2.719H4.02V0H-3.816V-11.375H4.035v2.117H-1.074v2.4H3.238Zm8.359,2.7H7.84L7.184,0H4.254L8.426-11.375H11L15.207,0H12.262ZM8.5-4.242h2.445L9.715-8.187Zm11.766.219H18.777V0H16.035V-11.375h4.477a5,5,0,0,1,3.164.9,3.041,3.041,0,0,1,1.141,2.536,3.693,3.693,0,0,1-.48,1.967,3.41,3.41,0,0,1-1.5,1.264L25.207-.117V0H22.27ZM18.777-6.133h1.734a1.557,1.557,0,0,0,1.176-.411,1.59,1.59,0,0,0,.395-1.147,1.608,1.608,0,0,0-.4-1.155,1.542,1.542,0,0,0-1.172-.419H18.777ZM-58.4,20V8.625h4.086a5.786,5.786,0,0,1,3.34.8,2.677,2.677,0,0,1,1.145,2.336,2.707,2.707,0,0,1-.406,1.508,2.367,2.367,0,0,1-1.2.922,2.4,2.4,0,0,1,1.367.875,2.544,2.544,0,0,1,.477,1.563,3.012,3.012,0,0,1-1.059,2.512A5.038,5.038,0,0,1-53.785,20Zm2.742-4.836v2.727h1.8a1.709,1.709,0,0,0,1.141-.34,1.189,1.189,0,0,0,.4-.957,1.261,1.261,0,0,0-1.414-1.43Zm0-1.8h1.43a2.031,2.031,0,0,0,1.281-.329,1.168,1.168,0,0,0,.383-.948,1.226,1.226,0,0,0-.414-1.038,2.216,2.216,0,0,0-1.336-.317H-55.66Zm14.039,4.508h-3.758L-46.035,20h-2.93l4.172-11.375h2.578L-38.012,20h-2.945Zm-3.1-2.117h2.445L-43.5,11.813Zm13.406,1.219a1.127,1.127,0,0,0-.426-.937,5.292,5.292,0,0,0-1.5-.7,14.353,14.353,0,0,1-1.75-.7A3.314,3.314,0,0,1-37.2,11.664,2.676,2.676,0,0,1-36.648,10,3.562,3.562,0,0,1-35.09,8.871a6.065,6.065,0,0,1,2.266-.4,5.305,5.305,0,0,1,2.2.438,3.482,3.482,0,0,1,1.512,1.246A3.254,3.254,0,0,1-28.574,12h-2.734a1.375,1.375,0,0,0-.426-1.078,1.66,1.66,0,0,0-1.152-.383,1.872,1.872,0,0,0-1.16.324,1,1,0,0,0-.426.824A1,1,0,0,0-34,12.48a5.911,5.911,0,0,0,1.648.734,10.1,10.1,0,0,1,1.938.816,3.256,3.256,0,0,1,1.844,2.93A2.778,2.778,0,0,1-29.7,19.3a5,5,0,0,1-3.086.852,6.122,6.122,0,0,1-2.5-.5A3.775,3.775,0,0,1-36.977,18.3a3.542,3.542,0,0,1-.566-1.988h2.75a1.744,1.744,0,0,0,.473,1.348,2.234,2.234,0,0,0,1.535.434,1.765,1.765,0,0,0,1.074-.293A.967.967,0,0,0-31.316,16.977Zm11.2-1.8h-4.312v2.719h5.094V20h-7.836V8.625h7.852v2.117h-5.109v2.4h4.313ZM-14.23,20V8.625h3.664a5.39,5.39,0,0,1,2.711.684,4.805,4.805,0,0,1,1.879,1.93,5.826,5.826,0,0,1,.684,2.793v.523a5.86,5.86,0,0,1-.66,2.8,4.826,4.826,0,0,1-1.859,1.938A5.271,5.271,0,0,1-10.488,20Zm2.742-9.258v7.148h.953a2.133,2.133,0,0,0,1.813-.84,4.116,4.116,0,0,0,.633-2.5v-.492a4.082,4.082,0,0,0-.633-2.484,2.17,2.17,0,0,0-1.844-.836Zm14.656,4.43H-1.145v2.719H3.949V20H-3.887V8.625H3.965v2.117H-1.145v2.4H3.168ZM9.051,20V8.625h3.664a5.39,5.39,0,0,1,2.711.684,4.805,4.805,0,0,1,1.879,1.93,5.826,5.826,0,0,1,.684,2.793v.523a5.86,5.86,0,0,1-.66,2.8,4.826,4.826,0,0,1-1.859,1.938A5.271,5.271,0,0,1,12.793,20Zm2.742-9.258v7.148h.953a2.133,2.133,0,0,0,1.813-.84,4.116,4.116,0,0,0,.633-2.5v-.492a4.082,4.082,0,0,0-.633-2.484,2.17,2.17,0,0,0-1.844-.836Zm13.9,7.133H21.934L21.277,20h-2.93L22.52,8.625H25.1L29.3,20H26.355Zm-3.1-2.117h2.445l-1.227-3.945Zm15.531-5.016H34.707V20H31.965V10.742H28.613V8.625h9.508Zm10.57,3.8a6.708,6.708,0,0,1-.617,2.945,4.561,4.561,0,0,1-1.754,1.973,4.884,4.884,0,0,1-2.59.691,4.953,4.953,0,0,1-2.578-.668,4.554,4.554,0,0,1-1.754-1.91,6.515,6.515,0,0,1-.66-2.852v-.641a6.737,6.737,0,0,1,.613-2.949,4.55,4.55,0,0,1,1.758-1.973,5.2,5.2,0,0,1,5.184-.008,4.632,4.632,0,0,1,1.762,1.957,6.544,6.544,0,0,1,.637,2.91ZM45.9,14.07a4.783,4.783,0,0,0-.566-2.574,1.817,1.817,0,0,0-1.621-.879q-2.062,0-2.18,3.094l-.008.836a4.92,4.92,0,0,0,.555,2.57,1.814,1.814,0,0,0,1.648.9,1.792,1.792,0,0,0,1.6-.883,4.785,4.785,0,0,0,.57-2.539Zm10.07,2.906a1.127,1.127,0,0,0-.426-.937,5.292,5.292,0,0,0-1.5-.7,14.353,14.353,0,0,1-1.75-.7,3.314,3.314,0,0,1-2.211-2.984A2.676,2.676,0,0,1,50.641,10,3.562,3.562,0,0,1,52.2,8.871a6.065,6.065,0,0,1,2.266-.4,5.305,5.305,0,0,1,2.2.438,3.482,3.482,0,0,1,1.512,1.246A3.254,3.254,0,0,1,58.715,12H55.98a1.375,1.375,0,0,0-.426-1.078,1.66,1.66,0,0,0-1.152-.383,1.872,1.872,0,0,0-1.16.324.955.955,0,0,0,.043,1.617,5.911,5.911,0,0,0,1.648.734,10.1,10.1,0,0,1,1.938.816,3.256,3.256,0,0,1,1.844,2.93A2.778,2.778,0,0,1,57.59,19.3a5,5,0,0,1-3.086.852,6.122,6.122,0,0,1-2.5-.5A3.775,3.775,0,0,1,50.313,18.3a3.542,3.542,0,0,1-.566-1.988H52.5a1.744,1.744,0,0,0,.473,1.348,2.234,2.234,0,0,0,1.535.434,1.765,1.765,0,0,0,1.074-.293A.967.967,0,0,0,55.973,16.977Z" transform="translate(690.625 727.75)" fill="#fff"/>
      <path id="Trazado_180910" data-name="Trazado 180910" d="M-.7-3.023a1.127,1.127,0,0,0-.426-.937,5.292,5.292,0,0,0-1.5-.7,14.353,14.353,0,0,1-1.75-.7A3.314,3.314,0,0,1-6.578-8.336,2.676,2.676,0,0,1-6.027-10a3.562,3.562,0,0,1,1.559-1.125,6.065,6.065,0,0,1,2.266-.4,5.305,5.305,0,0,1,2.2.438A3.482,3.482,0,0,1,1.508-9.848,3.254,3.254,0,0,1,2.047-8H-.687a1.375,1.375,0,0,0-.426-1.078,1.66,1.66,0,0,0-1.152-.383,1.872,1.872,0,0,0-1.16.324,1,1,0,0,0-.426.824,1,1,0,0,0,.469.793,5.911,5.911,0,0,0,1.648.734A10.1,10.1,0,0,1,.2-5.969a3.256,3.256,0,0,1,1.844,2.93A2.778,2.778,0,0,1,.922-.7,5,5,0,0,1-2.164.156a6.122,6.122,0,0,1-2.5-.5A3.775,3.775,0,0,1-6.355-1.7a3.542,3.542,0,0,1-.566-1.988h2.75A1.744,1.744,0,0,0-3.7-2.34a2.234,2.234,0,0,0,1.535.434A1.765,1.765,0,0,0-1.09-2.2.967.967,0,0,0-.7-3.023ZM6.375,0H3.641V-11.375H6.375Z" transform="translate(183 668.75)" fill="#fff"/>
      <path id="Trazado_180911" data-name="Trazado 180911" d="M-.781,0H-3.508L-7.539-7.078V0h-2.742V-11.375h2.742L-3.516-4.3v-7.078H-.781ZM10.586-5.453a6.708,6.708,0,0,1-.617,2.945A4.561,4.561,0,0,1,8.215-.535a4.884,4.884,0,0,1-2.59.691A4.953,4.953,0,0,1,3.047-.512a4.554,4.554,0,0,1-1.754-1.91,6.515,6.515,0,0,1-.66-2.852v-.641a6.737,6.737,0,0,1,.613-2.949A4.55,4.55,0,0,1,3-10.836a4.918,4.918,0,0,1,2.605-.7,4.87,4.87,0,0,1,2.578.688A4.632,4.632,0,0,1,9.949-8.887a6.544,6.544,0,0,1,.637,2.91ZM7.8-5.93A4.783,4.783,0,0,0,7.23-8.5a1.817,1.817,0,0,0-1.621-.879q-2.062,0-2.18,3.094l-.008.836a4.92,4.92,0,0,0,.555,2.57,1.814,1.814,0,0,0,1.648.9,1.792,1.792,0,0,0,1.6-.883A4.785,4.785,0,0,0,7.8-5.406Z" transform="translate(286 668.75)" fill="#fff"/>
      <path id="Trazado_180901" data-name="Trazado 180901" d="M-19.852,0h-2.734V-11.375h2.734ZM-8.445,0h-2.727L-15.2-7.078V0h-2.742V-11.375H-15.2L-11.18-4.3v-7.078h2.734Zm4.656,0H-6.523V-11.375h2.734ZM7.32-3.852a4.154,4.154,0,0,1-.641,2.1A3.866,3.866,0,0,1,5.035-.344a5.6,5.6,0,0,1-2.418.5A4.467,4.467,0,0,1-.914-1.3,6.032,6.032,0,0,1-2.2-5.43v-.562a6.885,6.885,0,0,1,.582-2.926A4.41,4.41,0,0,1,.055-10.855a4.676,4.676,0,0,1,2.531-.684,4.9,4.9,0,0,1,3.328,1.09,4.306,4.306,0,0,1,1.43,3H4.609a2.037,2.037,0,0,0-.523-1.492,2.153,2.153,0,0,0-1.5-.453,1.638,1.638,0,0,0-1.5.766,4.921,4.921,0,0,0-.5,2.445v.8a5.445,5.445,0,0,0,.457,2.6,1.672,1.672,0,0,0,1.574.781,2.106,2.106,0,0,0,1.445-.445,1.89,1.89,0,0,0,.531-1.414ZM11.539,0H8.8V-11.375h2.734ZM23.078-5.453a6.708,6.708,0,0,1-.617,2.945A4.561,4.561,0,0,1,20.707-.535a4.884,4.884,0,0,1-2.59.691,4.953,4.953,0,0,1-2.578-.668,4.554,4.554,0,0,1-1.754-1.91,6.515,6.515,0,0,1-.66-2.852v-.641a6.737,6.737,0,0,1,.613-2.949A4.55,4.55,0,0,1,15.5-10.836a4.918,4.918,0,0,1,2.605-.7,4.87,4.87,0,0,1,2.578.688,4.632,4.632,0,0,1,1.762,1.957,6.544,6.544,0,0,1,.637,2.91ZM20.289-5.93A4.783,4.783,0,0,0,19.723-8.5,1.817,1.817,0,0,0,18.1-9.383q-2.062,0-2.18,3.094l-.008.836a4.92,4.92,0,0,0,.555,2.57,1.814,1.814,0,0,0,1.648.9,1.792,1.792,0,0,0,1.6-.883,4.785,4.785,0,0,0,.57-2.539Z" transform="translate(414 84.75)" fill="#fff"/>
      <path id="Trazado_180902" data-name="Trazado 180902" d="M-32.41,0h-2.727l-4.031-7.078V0H-41.91V-11.375h2.742L-35.145-4.3v-7.078h2.734Zm8.789-4.828h-4.312v2.719h5.094V0h-7.836V-11.375h7.852v2.117h-5.109v2.4h4.313Zm11.1.977a4.154,4.154,0,0,1-.641,2.1A3.866,3.866,0,0,1-14.8-.344a5.6,5.6,0,0,1-2.418.5A4.467,4.467,0,0,1-20.754-1.3,6.032,6.032,0,0,1-22.043-5.43v-.562a6.885,6.885,0,0,1,.582-2.926,4.41,4.41,0,0,1,1.676-1.937,4.676,4.676,0,0,1,2.531-.684,4.9,4.9,0,0,1,3.328,1.09,4.306,4.306,0,0,1,1.43,3H-15.23a2.037,2.037,0,0,0-.523-1.492,2.153,2.153,0,0,0-1.5-.453,1.638,1.638,0,0,0-1.5.766,4.921,4.921,0,0,0-.5,2.445v.8a5.445,5.445,0,0,0,.457,2.6,1.672,1.672,0,0,0,1.574.781,2.106,2.106,0,0,0,1.445-.445,1.89,1.89,0,0,0,.531-1.414Zm8.352-.977H-8.48v2.719h5.094V0h-7.836V-11.375h7.852v2.117H-8.48v2.4h4.313ZM3.6-3.023a1.127,1.127,0,0,0-.426-.937,5.292,5.292,0,0,0-1.5-.7,14.353,14.353,0,0,1-1.75-.7A3.314,3.314,0,0,1-2.285-8.336,2.676,2.676,0,0,1-1.734-10,3.562,3.562,0,0,1-.176-11.129a6.065,6.065,0,0,1,2.266-.4,5.305,5.305,0,0,1,2.2.438A3.482,3.482,0,0,1,5.8-9.848,3.254,3.254,0,0,1,6.34-8H3.605A1.375,1.375,0,0,0,3.18-9.078a1.66,1.66,0,0,0-1.152-.383,1.872,1.872,0,0,0-1.16.324,1,1,0,0,0-.426.824A1,1,0,0,0,.91-7.52a5.911,5.911,0,0,0,1.648.734A10.1,10.1,0,0,1,4.5-5.969,3.256,3.256,0,0,1,6.34-3.039,2.778,2.778,0,0,1,5.215-.7,5,5,0,0,1,2.129.156a6.122,6.122,0,0,1-2.5-.5A3.775,3.775,0,0,1-2.062-1.7a3.542,3.542,0,0,1-.566-1.988H.121A1.744,1.744,0,0,0,.594-2.34a2.234,2.234,0,0,0,1.535.434A1.765,1.765,0,0,0,3.2-2.2.967.967,0,0,0,3.6-3.023ZM10.668,0H7.934V-11.375h2.734ZM21.277-9.258H17.863V0H15.121V-9.258H11.77v-2.117h9.508Zm6.68,7.133H24.2L23.543,0h-2.93l4.172-11.375h2.578L31.566,0H28.621Zm-3.1-2.117H27.3L26.074-8.187ZM41.895,0H39.168L35.137-7.078V0H32.395V-11.375h2.742L39.16-4.3v-7.078h2.734ZM-51.9,16.141V20h-2.742V8.625H-50.1a5.287,5.287,0,0,1,2.309.48,3.621,3.621,0,0,1,1.555,1.367,3.734,3.734,0,0,1,.551,2.012,3.291,3.291,0,0,1-1.191,2.66,4.943,4.943,0,0,1-3.27,1Zm0-2.117h1.8a1.7,1.7,0,0,0,1.215-.4,1.48,1.48,0,0,0,.418-1.125,1.83,1.83,0,0,0-.43-1.273,1.522,1.522,0,0,0-1.172-.484H-51.9ZM-40,15.977h-1.484V20h-2.742V8.625h4.477a5,5,0,0,1,3.164.9,3.041,3.041,0,0,1,1.141,2.536,3.693,3.693,0,0,1-.48,1.967,3.41,3.41,0,0,1-1.5,1.264l2.375,4.593V20h-2.937Zm-1.484-2.109h1.734a1.557,1.557,0,0,0,1.176-.411,1.59,1.59,0,0,0,.395-1.147,1.608,1.608,0,0,0-.4-1.155,1.542,1.542,0,0,0-1.172-.419h-1.734Zm17.328.68a6.708,6.708,0,0,1-.617,2.945,4.561,4.561,0,0,1-1.754,1.973,4.884,4.884,0,0,1-2.59.691,4.953,4.953,0,0,1-2.578-.668,4.554,4.554,0,0,1-1.754-1.91,6.515,6.515,0,0,1-.66-2.852v-.641a6.737,6.737,0,0,1,.613-2.949,4.55,4.55,0,0,1,1.758-1.973,4.918,4.918,0,0,1,2.605-.7,4.87,4.87,0,0,1,2.578.688,4.632,4.632,0,0,1,1.762,1.957,6.544,6.544,0,0,1,.637,2.91Zm-2.789-.477a4.783,4.783,0,0,0-.566-2.574,1.817,1.817,0,0,0-1.621-.879q-2.062,0-2.18,3.094l-.008.836a4.92,4.92,0,0,0,.555,2.57,1.814,1.814,0,0,0,1.648.9,1.792,1.792,0,0,0,1.6-.883,4.785,4.785,0,0,0,.57-2.539Zm8.445,2.836,2.266-8.281h3.063L-17,20h-3L-23.8,8.625h3.039Zm13.211-1.734H-9.6v2.719h5.094V20h-7.836V8.625h7.852v2.117H-9.6v2.4h4.313Zm8.953,0H-.648v2.719H4.445V20H-3.391V8.625H4.461v2.117H-.648v2.4H3.664ZM5.563,20V8.625H9.227a5.39,5.39,0,0,1,2.711.684,4.805,4.805,0,0,1,1.879,1.93,5.826,5.826,0,0,1,.684,2.793v.523a5.86,5.86,0,0,1-.66,2.8,4.826,4.826,0,0,1-1.859,1.938A5.271,5.271,0,0,1,9.3,20ZM8.3,10.742v7.148h.953a2.133,2.133,0,0,0,1.813-.84,4.116,4.116,0,0,0,.633-2.5v-.492a4.082,4.082,0,0,0-.633-2.484,2.17,2.17,0,0,0-1.844-.836Zm17.234,3.8a6.708,6.708,0,0,1-.617,2.945,4.561,4.561,0,0,1-1.754,1.973,4.884,4.884,0,0,1-2.59.691A4.953,4.953,0,0,1,18,19.488a4.554,4.554,0,0,1-1.754-1.91,6.515,6.515,0,0,1-.66-2.852v-.641a6.737,6.737,0,0,1,.613-2.949,4.55,4.55,0,0,1,1.758-1.973,5.2,5.2,0,0,1,5.184-.008A4.632,4.632,0,0,1,24.9,11.113a6.544,6.544,0,0,1,.637,2.91ZM22.75,14.07a4.783,4.783,0,0,0-.566-2.574,1.817,1.817,0,0,0-1.621-.879q-2.062,0-2.18,3.094l-.008.836a4.92,4.92,0,0,0,.555,2.57,1.814,1.814,0,0,0,1.648.9,1.792,1.792,0,0,0,1.6-.883,4.785,4.785,0,0,0,.57-2.539Zm8.43,1.906H29.7V20H26.953V8.625H31.43a5,5,0,0,1,3.164.9,3.041,3.041,0,0,1,1.141,2.536,3.693,3.693,0,0,1-.48,1.967,3.41,3.41,0,0,1-1.5,1.264l2.375,4.593V20H33.188ZM29.7,13.867H31.43a1.557,1.557,0,0,0,1.176-.411A1.59,1.59,0,0,0,33,12.309a1.608,1.608,0,0,0-.4-1.155,1.542,1.542,0,0,0-1.172-.419H29.7Zm14.75,1.3H40.133v2.719h5.094V20H37.391V8.625h7.852v2.117H40.133v2.4h4.313Zm7.766,1.8a1.127,1.127,0,0,0-.426-.937,5.292,5.292,0,0,0-1.5-.7,14.353,14.353,0,0,1-1.75-.7,3.314,3.314,0,0,1-2.211-2.984A2.676,2.676,0,0,1,46.879,10a3.562,3.562,0,0,1,1.559-1.125,6.065,6.065,0,0,1,2.266-.4,5.305,5.305,0,0,1,2.2.438,3.482,3.482,0,0,1,1.512,1.246A3.254,3.254,0,0,1,54.953,12H52.219a1.375,1.375,0,0,0-.426-1.078,1.66,1.66,0,0,0-1.152-.383,1.872,1.872,0,0,0-1.16.324.955.955,0,0,0,.043,1.617,5.911,5.911,0,0,0,1.648.734,10.1,10.1,0,0,1,1.938.816,3.256,3.256,0,0,1,1.844,2.93A2.778,2.778,0,0,1,53.828,19.3a5,5,0,0,1-3.086.852,6.122,6.122,0,0,1-2.5-.5A3.775,3.775,0,0,1,46.551,18.3a3.542,3.542,0,0,1-.566-1.988h2.75a1.744,1.744,0,0,0,.473,1.348,2.234,2.234,0,0,0,1.535.434,1.765,1.765,0,0,0,1.074-.293A.967.967,0,0,0,52.211,16.977Z" transform="translate(414 145.75)" fill="#fff"/>
      <path id="Trazado_180903" data-name="Trazado 180903" d="M-.7-3.023a1.127,1.127,0,0,0-.426-.937,5.292,5.292,0,0,0-1.5-.7,14.353,14.353,0,0,1-1.75-.7A3.314,3.314,0,0,1-6.578-8.336,2.676,2.676,0,0,1-6.027-10a3.562,3.562,0,0,1,1.559-1.125,6.065,6.065,0,0,1,2.266-.4,5.305,5.305,0,0,1,2.2.438A3.482,3.482,0,0,1,1.508-9.848,3.254,3.254,0,0,1,2.047-8H-.687a1.375,1.375,0,0,0-.426-1.078,1.66,1.66,0,0,0-1.152-.383,1.872,1.872,0,0,0-1.16.324,1,1,0,0,0-.426.824,1,1,0,0,0,.469.793,5.911,5.911,0,0,0,1.648.734A10.1,10.1,0,0,1,.2-5.969a3.256,3.256,0,0,1,1.844,2.93A2.778,2.778,0,0,1,.922-.7,5,5,0,0,1-2.164.156a6.122,6.122,0,0,1-2.5-.5A3.775,3.775,0,0,1-6.355-1.7a3.542,3.542,0,0,1-.566-1.988h2.75A1.744,1.744,0,0,0-3.7-2.34a2.234,2.234,0,0,0,1.535.434A1.765,1.765,0,0,0-1.09-2.2.967.967,0,0,0-.7-3.023ZM6.375,0H3.641V-11.375H6.375Z" transform="translate(366 228.75)" fill="#fff"/>
      <path id="Trazado_180904" data-name="Trazado 180904" d="M-.781,0H-3.508L-7.539-7.078V0h-2.742V-11.375h2.742L-3.516-4.3v-7.078H-.781ZM10.586-5.453a6.708,6.708,0,0,1-.617,2.945A4.561,4.561,0,0,1,8.215-.535a4.884,4.884,0,0,1-2.59.691A4.953,4.953,0,0,1,3.047-.512a4.554,4.554,0,0,1-1.754-1.91,6.515,6.515,0,0,1-.66-2.852v-.641a6.737,6.737,0,0,1,.613-2.949A4.55,4.55,0,0,1,3-10.836a4.918,4.918,0,0,1,2.605-.7,4.87,4.87,0,0,1,2.578.688A4.632,4.632,0,0,1,9.949-8.887a6.544,6.544,0,0,1,.637,2.91ZM7.8-5.93A4.783,4.783,0,0,0,7.23-8.5a1.817,1.817,0,0,0-1.621-.879q-2.062,0-2.18,3.094l-.008.836a4.92,4.92,0,0,0,.555,2.57,1.814,1.814,0,0,0,1.648.9,1.792,1.792,0,0,0,1.6-.883A4.785,4.785,0,0,0,7.8-5.406Z" transform="translate(462 228.75)" fill="#fff"/>
      <path id="Trazado_180915" data-name="Trazado 180915" d="M-4.383-4.531H-8.8V0h-2.742V-11.375h7.609v2.117H-8.8v2.617h4.422ZM.125,0H-2.609V-11.375H.125ZM11.531,0H8.8L4.773-7.078V0H2.031V-11.375H4.773L8.8-4.3v-7.078h2.734Z" transform="translate(839 737.75)" fill="#fff"/>
    </g>
    <rect id="Rectángulo_37048" data-name="Rectángulo 37048" width="315" height="37.977" transform="translate(180 3100.431)" fill="#ffca00"/>
    <rect id="Rectángulo_37049" data-name="Rectángulo 37049" width="213.713" height="37.977" transform="translate(1218 3594.431)" fill="#fe502d"/>
    <path id="Unión_14" data-name="Unión 14" d="M16.672,95.524l-8.054,8.054-2.12-2.12L14.552,93.4,6.5,85.35l2.12-2.119,8.054,8.054,8.054-8.054,2.12,2.119L18.791,93.4l8.054,8.054-2.12,2.12Zm0-38.366L8.618,65.212,6.5,63.091l8.054-8.054L6.5,46.983l2.12-2.12,8.054,8.054,8.054-8.054,2.12,2.12-8.054,8.054,8.054,8.054-2.12,2.121Zm0-38.366L8.618,26.845,6.5,24.726l8.054-8.054L6.5,8.618,8.618,6.5l8.054,8.054L24.726,6.5l2.12,2.12-8.054,8.054,8.054,8.054-2.12,2.12Z" transform="translate(1233.422 3051.887) rotate(-90)" fill="#ffca00"/>
  </g>
</svg>
